<?xml version="1.0" encoding="UTF-8"?>
<!DOCTYPE svg PUBLIC "-//W3C//DTD SVG 1.1//EN" "http://www.w3.org/Graphics/SVG/1.1/DTD/svg11.dtd">
<svg version="1.1" xmlns="http://www.w3.org/2000/svg" xmlns:xlink="http://www.w3.org/1999/xlink" x="0" y="0" width="777" height="202" viewBox="0, 0, 777, 202">
  <defs>
    <clipPath id="Clip_1">
      <path d="M0.06,0.22 L776.221,0.22 L776.221,202 L0.06,202 z"/>
    </clipPath>
  </defs>
  <g id="Layer_1">
    <g clip-path="url(#Clip_1)">
      <path d="M765.182,195.319 C765.182,199.399 767.502,202 771.702,202 C773.302,202 774.542,201.84 775.662,201.519 L775.502,197.279 C774.942,197.64 774.022,197.84 773.062,197.84 C771.022,197.84 770.542,196.199 770.542,194.439 L770.542,184.84 L775.302,184.84 L775.302,180.92 L770.542,180.92 L770.542,175.08 L765.182,176.8 L765.182,180.92 L761.222,180.92 L761.222,184.84 L765.182,184.84 L765.182,195.319 z M758.262,181.199 C756.582,180.84 754.942,180.439 752.422,180.439 C748.222,180.439 744.343,182.399 744.343,186.84 C744.343,194.279 753.662,191.519 753.662,195.56 C753.662,197.56 751.502,198.08 750.142,198.08 C748.302,198.08 746.542,197.56 744.862,196.72 L744.542,201.12 C746.502,201.64 748.582,202 750.622,202 C754.982,202 759.262,200.08 759.262,195.279 C759.262,187.84 749.942,189.92 749.942,186.64 C749.942,184.88 751.662,184.359 753.102,184.359 C755.062,184.359 756.262,184.68 757.902,185.239 L758.262,181.199 z M740.143,180.92 L734.783,180.92 L734.783,191 C734.783,193.64 733.943,197.84 730.063,197.84 C726.623,197.84 726.583,194.439 726.583,191.92 L726.583,180.92 L721.223,180.92 L721.223,193.92 C721.223,198.56 723.343,202 728.223,202 C731.023,202 733.343,200.72 734.983,198.72 L735.063,198.72 L735.063,201.519 L740.143,201.519 L740.143,180.92 z M705.783,201.519 L711.143,201.519 L711.143,193.96 C711.143,191 711.143,185.56 715.503,185.56 C716.463,185.56 717.423,185.72 717.903,186 L717.903,180.6 C717.343,180.439 716.783,180.439 716.263,180.439 C713.063,180.439 710.863,183.68 710.623,185.6 L710.543,185.6 L710.543,180.92 L705.783,180.92 L705.783,201.519 z M692.655,201.519 L698.255,201.519 L698.255,178 L706.255,178 L706.255,173.6 L684.655,173.6 L684.655,178 L692.655,178 L692.655,201.519 z M651.535,201.519 L656.895,201.519 L656.895,191.439 C656.895,188.8 657.735,184.6 661.615,184.6 C665.055,184.6 665.095,188 665.095,190.519 L665.095,201.519 L670.455,201.519 L670.455,188.519 C670.455,183.88 668.335,180.439 663.455,180.439 C660.655,180.439 658.375,181.359 656.695,183.72 L656.615,183.72 L656.615,180.92 L651.535,180.92 L651.535,201.519 z M631.375,190.72 C631.375,187.64 633.055,184.6 636.535,184.6 C640.055,184.6 641.735,187.56 641.735,190.72 C641.735,194.159 640.655,197.84 636.535,197.84 C632.455,197.84 631.375,194.119 631.375,190.72 z M625.775,191.359 C625.775,197.279 629.735,202 636.535,202 C643.375,202 647.335,197.279 647.335,191.359 C647.335,184.56 642.655,180.439 636.535,180.439 C630.455,180.439 625.775,184.56 625.775,191.359 z M616.095,177.159 L621.455,177.159 L621.455,172.04 L616.095,172.04 z M616.095,201.519 L621.455,201.519 L621.455,180.92 L616.095,180.92 z M602.177,195.319 C602.177,199.399 604.496,202 608.696,202 C610.296,202 611.536,201.84 612.656,201.519 L612.496,197.279 C611.936,197.64 611.016,197.84 610.056,197.84 C608.016,197.84 607.536,196.199 607.536,194.439 L607.536,184.84 L612.296,184.84 L612.296,180.92 L607.536,180.92 L607.536,175.08 L602.177,176.8 L602.177,180.92 L598.216,180.92 L598.216,184.84 L602.177,184.84 L602.177,195.319 z M581.976,195.56 C581.976,192.399 585.536,192 587.936,192 L590.256,192 C590.256,193.6 590.016,195.08 589.136,196.239 C588.296,197.359 587.016,198.08 585.376,198.08 C583.456,198.08 581.976,197.319 581.976,195.56 z M579.256,186.6 C581.056,185.239 583.336,184.359 585.616,184.359 C588.776,184.359 590.256,185.479 590.256,188.8 L587.296,188.8 C585.056,188.8 582.416,189 580.376,190 C578.336,191 576.856,192.8 576.856,195.88 C576.856,199.8 580.416,202 584.056,202 C586.496,202 589.176,200.72 590.416,198.439 L590.496,198.439 C590.536,199.08 590.536,200.439 590.736,201.519 L595.456,201.519 C595.336,199.92 595.256,198.479 595.216,196.92 C595.176,195.399 595.136,193.84 595.136,191.76 L595.136,189.12 C595.136,183.04 592.536,180.439 586.256,180.439 C583.976,180.439 581.177,181.04 579.096,182 L579.256,186.6 z M567.456,201.519 L572.656,201.519 L572.656,171.519 L567.296,171.519 L567.296,183.319 L567.217,183.319 C565.616,181.359 563.736,180.439 561.056,180.439 C554.736,180.439 552.416,185.479 552.416,191.159 C552.416,196.8 554.736,202 561.056,202 C563.576,202 565.776,201.199 567.376,199.199 L567.456,199.199 L567.456,201.519 z M558.016,191.159 C558.016,188.399 558.976,184.6 562.456,184.6 C565.896,184.6 567.256,188.279 567.256,191.159 C567.256,194.08 566.096,197.84 562.536,197.84 C559.016,197.84 558.016,194 558.016,191.159 z M529.296,201.519 L534.656,201.519 L534.656,191.439 C534.656,188.8 535.496,184.6 539.376,184.6 C542.816,184.6 542.856,188 542.856,190.519 L542.856,201.519 L548.216,201.519 L548.216,188.519 C548.216,183.88 546.096,180.439 541.216,180.439 C538.416,180.439 536.136,181.359 534.456,183.72 L534.376,183.72 L534.376,180.92 L529.296,180.92 L529.296,201.519 z M523.777,180.92 L518.417,180.92 L518.417,191 C518.417,193.64 517.577,197.84 513.697,197.84 C510.257,197.84 510.217,194.439 510.217,191.92 L510.217,180.92 L504.857,180.92 L504.857,193.92 C504.857,198.56 506.977,202 511.857,202 C514.657,202 516.977,200.72 518.617,198.72 L518.697,198.72 L518.697,201.519 L523.777,201.519 L523.777,180.92 z M484.697,190.72 C484.697,187.64 486.377,184.6 489.857,184.6 C493.377,184.6 495.057,187.56 495.057,190.72 C495.057,194.159 493.977,197.84 489.857,197.84 C485.777,197.84 484.697,194.119 484.697,190.72 z M479.097,191.359 C479.097,197.279 483.057,202 489.857,202 C496.697,202 500.657,197.279 500.657,191.359 C500.657,184.56 495.977,180.439 489.857,180.439 C483.777,180.439 479.097,184.56 479.097,191.359 z M460.897,201.519 L466.497,201.519 L466.497,189.279 L475.937,189.279 L475.937,184.88 L466.497,184.88 L466.497,178 L476.417,178 L476.417,173.6 L460.897,173.6 L460.897,201.519 z M443.057,174.12 C441.017,173.439 438.777,173.119 436.377,173.119 C431.457,173.119 426.617,175.399 426.617,181.64 C426.617,190.88 438.857,188.68 438.857,194 C438.857,196.519 436.017,197.6 433.897,197.6 C431.697,197.6 429.497,196.92 427.577,195.88 L427.057,200.92 C429.817,201.6 431.177,202 434.217,202 C439.857,202 444.697,199.68 444.697,193.56 C444.697,184.199 432.457,186.239 432.457,181.399 C432.457,178.359 434.937,177.519 436.857,177.519 C438.817,177.519 440.777,177.96 442.537,178.72 L443.057,174.12 z M398.658,201.519 L404.258,201.519 L404.258,189.279 L415.458,189.279 L415.458,201.519 L421.058,201.519 L421.058,173.6 L415.458,173.6 L415.458,184.88 L404.258,184.88 L404.258,173.6 L398.658,173.6 L398.658,201.519 z M369.498,201.519 L374.858,201.519 L374.858,180.64 L374.938,180.64 L385.618,201.519 L392.458,201.519 L392.458,173.6 L387.098,173.6 L387.098,194.479 L387.018,194.479 L376.378,173.6 L369.498,173.6 L369.498,201.519" fill="#FFFFFE"/>
      <path d="M772.622,121.04 C770.102,120.5 767.642,119.899 763.862,119.899 C757.562,119.899 751.742,122.84 751.742,129.5 C751.742,140.659 765.722,136.519 765.722,142.58 C765.722,145.58 762.482,146.359 760.442,146.359 C757.682,146.359 755.042,145.58 752.522,144.319 L752.042,150.92 C754.982,151.699 758.102,152.239 761.162,152.239 C767.702,152.239 774.122,149.359 774.122,142.159 C774.122,131 760.142,134.12 760.142,129.199 C760.142,126.56 762.722,125.779 764.882,125.779 C767.822,125.779 769.622,126.26 772.082,127.1 L772.622,121.04 z M737.222,151.519 L745.262,151.519 L745.262,106.519 L737.222,106.519 z M709.382,142.58 C709.382,137.84 714.722,137.239 718.322,137.239 L721.802,137.239 C721.802,139.64 721.442,141.859 720.122,143.6 C718.862,145.279 716.942,146.359 714.482,146.359 C711.602,146.359 709.382,145.22 709.382,142.58 z M705.302,129.14 C708.002,127.1 711.422,125.779 714.842,125.779 C719.582,125.779 721.802,127.46 721.802,132.439 L717.362,132.439 C714.002,132.439 710.042,132.739 706.982,134.239 C703.922,135.739 701.702,138.439 701.702,143.06 C701.702,148.939 707.042,152.239 712.502,152.239 C716.162,152.239 720.182,150.319 722.042,146.899 L722.162,146.899 C722.222,147.859 722.222,149.899 722.522,151.519 L729.602,151.519 C729.422,149.12 729.302,146.96 729.242,144.62 C729.182,142.34 729.122,140 729.122,136.88 L729.122,132.92 C729.122,123.8 725.222,119.899 715.802,119.899 C712.382,119.899 708.182,120.8 705.062,122.239 L705.302,129.14 z M682.983,142.22 C682.983,148.34 686.463,152.239 692.763,152.239 C695.163,152.239 697.023,152 698.703,151.519 L698.463,145.159 C697.623,145.699 696.243,146 694.803,146 C691.743,146 691.023,143.54 691.023,140.899 L691.023,126.5 L698.163,126.5 L698.163,120.62 L691.023,120.62 L691.023,111.859 L682.983,114.439 L682.983,120.62 L677.043,120.62 L677.043,126.5 L682.983,126.5 L682.983,142.22 z M663.844,114.979 L671.883,114.979 L671.883,107.3 L663.844,107.3 z M663.844,151.519 L671.883,151.519 L671.883,120.62 L663.844,120.62 z M642.303,126.14 C647.523,126.14 648.963,131.84 648.963,135.979 C648.963,140.239 647.463,146 642.183,146 C636.844,146 635.103,140.359 635.103,135.979 C635.103,131.659 637.143,126.14 642.303,126.14 z M627.003,164.119 L635.043,164.119 L635.043,147.979 L635.163,147.979 C637.983,151.399 640.803,152.239 644.223,152.239 C653.883,152.239 657.363,144.439 657.363,135.979 C657.363,127.46 653.883,119.899 644.403,119.899 C639.663,119.899 636.603,122 634.803,125 L634.683,125 L634.683,120.62 L627.003,120.62 L627.003,164.119 z M619.264,121.04 C616.744,120.5 614.284,119.899 610.504,119.899 C604.204,119.899 598.384,122.84 598.384,129.5 C598.384,140.659 612.364,136.519 612.364,142.58 C612.364,145.58 609.124,146.359 607.084,146.359 C604.324,146.359 601.684,145.58 599.164,144.319 L598.684,150.92 C601.624,151.699 604.744,152.239 607.804,152.239 C614.344,152.239 620.764,149.359 620.764,142.159 C620.764,131 606.784,134.12 606.784,129.199 C606.784,126.56 609.364,125.779 611.524,125.779 C614.464,125.779 616.264,126.26 618.724,127.1 L619.264,121.04 z M570.125,135.319 C570.125,130.699 572.645,126.14 577.865,126.14 C583.145,126.14 585.665,130.58 585.665,135.319 C585.665,140.479 584.045,146 577.865,146 C571.745,146 570.125,140.42 570.125,135.319 z M561.725,136.279 C561.725,145.159 567.665,152.239 577.865,152.239 C588.125,152.239 594.065,145.159 594.065,136.279 C594.065,126.08 587.045,119.899 577.865,119.899 C568.745,119.899 561.725,126.08 561.725,136.279 z M521.105,151.519 L529.506,151.519 L529.506,133.159 L546.305,133.159 L546.305,151.519 L554.706,151.519 L554.706,109.64 L546.305,109.64 L546.305,126.56 L529.506,126.56 L529.506,109.64 L521.105,109.64 L521.105,151.519 z M475.746,120.62 L466.865,120.62 L478.686,153.08 C478.686,156.38 476.706,158.6 473.466,158.6 C471.485,158.6 470.346,158.42 469.326,158.06 L468.785,164 C470.646,164.54 472.566,164.84 474.485,164.84 C482.886,164.84 484.746,158.12 487.326,151.279 L498.906,120.62 L490.746,120.62 L483.306,143.18 L483.186,143.18 L475.746,120.62 z M449.646,142.22 C449.646,148.34 453.126,152.239 459.426,152.239 C461.826,152.239 463.686,152 465.366,151.519 L465.126,145.159 C464.286,145.699 462.906,146 461.466,146 C458.406,146 457.686,143.54 457.686,140.899 L457.686,126.5 L464.826,126.5 L464.826,120.62 L457.686,120.62 L457.686,111.859 L449.646,114.439 L449.646,120.62 L443.706,120.62 L443.706,126.5 L449.646,126.5 L449.646,142.22 z M430.506,114.979 L438.546,114.979 L438.546,107.3 L430.506,107.3 z M430.506,151.519 L438.546,151.519 L438.546,120.62 L430.506,120.62 z M422.587,121.04 C420.067,120.5 417.607,119.899 413.827,119.899 C407.527,119.899 401.707,122.84 401.707,129.5 C401.707,140.659 415.687,136.519 415.687,142.58 C415.687,145.58 412.447,146.359 410.407,146.359 C407.647,146.359 405.007,145.58 402.487,144.319 L402.007,150.92 C404.947,151.699 408.067,152.239 411.127,152.239 C417.667,152.239 424.087,149.359 424.087,142.159 C424.087,131 410.107,134.12 410.107,129.199 C410.107,126.56 412.687,125.779 414.847,125.779 C417.787,125.779 419.587,126.26 422.047,127.1 L422.587,121.04 z M380.527,151.519 L388.567,151.519 L388.567,140.18 C388.567,135.739 388.567,127.58 395.107,127.58 C396.547,127.58 397.987,127.819 398.707,128.239 L398.707,120.14 C397.867,119.899 397.027,119.899 396.247,119.899 C391.447,119.899 388.147,124.76 387.787,127.64 L387.667,127.64 L387.667,120.62 L380.527,120.62 L380.527,151.519 z M371.767,143.239 C368.767,144.92 365.407,146.359 361.507,146.359 C356.527,146.359 353.047,143.54 352.687,138.56 L374.047,138.56 C374.047,127.76 370.807,119.899 359.347,119.899 C349.747,119.899 345.007,127.279 345.007,136.22 C345.007,146.359 350.947,152.239 361.147,152.239 C365.467,152.239 368.827,151.399 371.767,149.779 L371.767,143.239 z M352.687,133.04 C353.047,128.899 355.327,125.779 359.827,125.779 C364.327,125.779 366.127,129.14 366.367,133.04 L352.687,133.04 z M321.667,151.519 L330.727,151.519 L342.127,120.62 L334.087,120.62 L326.647,143.12 L326.527,143.12 L318.847,120.62 L310.207,120.62 L321.667,151.519 z M297.127,114.979 L305.167,114.979 L305.167,107.3 L297.127,107.3 z M297.127,151.519 L305.167,151.519 L305.167,120.62 L297.127,120.62 z M260.288,151.519 L268.328,151.519 L268.328,136.399 C268.328,132.439 269.588,126.14 275.408,126.14 C280.568,126.14 280.628,131.239 280.628,135.019 L280.628,151.519 L288.668,151.519 L288.668,132.019 C288.668,125.06 285.488,119.899 278.168,119.899 C273.968,119.899 270.548,121.279 268.028,124.819 L267.908,124.819 L267.908,120.62 L260.288,120.62 L260.288,151.519 z M217.389,136.399 C217.389,147.62 223.749,152.239 234.489,152.239 C245.229,152.239 251.589,147.62 251.589,136.399 L251.589,109.64 L243.189,109.64 L243.189,133.819 C243.189,140.96 240.909,145.64 234.489,145.64 C228.069,145.64 225.789,140.96 225.789,133.819 L225.789,109.64 L217.389,109.64 L217.389,136.399 z M184.209,151.519 L192.009,151.519 L192.009,106.519 L183.969,106.519 L183.969,124.22 L183.849,124.22 C181.449,121.279 178.629,119.899 174.609,119.899 C165.129,119.899 161.649,127.46 161.649,135.979 C161.649,144.439 165.129,152.239 174.609,152.239 C178.389,152.239 181.689,151.04 184.089,148.04 L184.209,148.04 L184.209,151.519 z M170.049,135.979 C170.049,131.84 171.489,126.14 176.709,126.14 C181.869,126.14 183.909,131.659 183.909,135.979 C183.909,140.359 182.169,146 176.829,146 C171.549,146 170.049,140.239 170.049,135.979 z M141.539,151.519 L149.579,151.519 L149.579,140.18 C149.579,135.739 149.579,127.58 156.119,127.58 C157.559,127.58 158.999,127.819 159.719,128.239 L159.719,120.14 C158.879,119.899 158.039,119.899 157.259,119.899 C152.459,119.899 149.159,124.76 148.799,127.64 L148.679,127.64 L148.679,120.62 L141.539,120.62 L141.539,151.519 z M111.119,135.319 C111.119,130.699 113.639,126.14 118.859,126.14 C124.139,126.14 126.659,130.58 126.659,135.319 C126.659,140.479 125.039,146 118.859,146 C112.739,146 111.119,140.42 111.119,135.319 z M102.719,136.279 C102.719,145.159 108.659,152.239 118.859,152.239 C129.119,152.239 135.059,145.159 135.059,136.279 C135.059,126.08 128.039,119.899 118.859,119.899 C109.739,119.899 102.719,126.08 102.719,136.279 z M84.3,151.519 L92.34,151.519 L92.34,126.5 L99.36,126.5 L99.36,120.62 L92.34,120.62 L92.34,116.779 C92.34,114.38 93.18,112.04 95.88,112.04 C97.62,112.04 98.64,112.699 99.36,113.12 L100.02,106.46 C98.46,106.1 96.18,105.8 94.14,105.8 C87.78,105.8 84.3,110.12 84.3,116.3 L84.3,120.62 L78.36,120.62 L78.36,126.5 L84.3,126.5 L84.3,151.519 z M55.02,135.319 L44.4,151.519 L53.22,151.519 L60.18,140 L67.08,151.519 L76.68,151.519 L66.24,135.319 L75.48,120.62 L66.96,120.62 L61.02,130.699 L54.96,120.62 L45.48,120.62 L55.02,135.319 z M8.76,130.46 C8.76,123.08 12.18,115.519 20.52,115.519 C28.86,115.519 32.28,123.08 32.28,130.46 C32.28,138.019 29.1,145.64 20.52,145.64 C11.94,145.64 8.76,138.019 8.76,130.46 z M-0,130.46 C-0,143.3 7.08,152.239 20.52,152.239 C33.78,152.239 41.04,143.12 41.04,130.46 C41.04,117.8 33.66,108.92 20.52,108.92 C7.2,108.92 -0,117.62 -0,130.46" fill="#FFFFFE"/>
    </g>
    <path d="M768.311,10.292 L763.87,23.921 C760.323,22.26 755.492,20.791 748.696,20.791 C741.407,20.791 735.49,21.86 735.49,27.36 C735.49,37.06 762.199,33.439 762.199,54.23 C762.199,73.152 744.553,78.06 728.588,78.06 C721.493,78.06 713.311,76.385 707.304,74.518 L711.641,60.593 C715.279,62.951 722.581,64.522 728.588,64.522 C734.312,64.522 743.271,63.439 743.271,56.382 C743.271,45.394 716.561,49.515 716.561,30.207 C716.561,12.547 732.137,7.253 747.219,7.253 C755.7,7.253 763.676,8.142 768.311,10.292 z M715.383,8.425 L701.089,76.875 L682.665,76.875 L688.776,47.558 L666.986,47.558 L660.875,76.875 L642.451,76.875 L656.745,8.425 L675.169,8.425 L669.757,34.613 L691.534,34.613 L696.959,8.425 L715.383,8.425 z M649.948,8.425 L635.369,76.875 L612.492,76.875 L598.108,29.512 L597.913,29.512 L588.345,76.875 L570.996,76.875 L585.691,8.425 L608.646,8.425 L622.746,55.892 L622.94,55.892 L632.598,8.425 L649.948,8.425 z M565.04,85.26 L776.221,85.26 L776.221,0.22 L565.04,0.22 z" fill="#FFFFFE"/>
  </g>
</svg>
