<?xml version="1.0" encoding="UTF-8"?>
<!DOCTYPE svg PUBLIC "-//W3C//DTD SVG 1.1//EN" "http://www.w3.org/Graphics/SVG/1.1/DTD/svg11.dtd">
<svg version="1.1" xmlns="http://www.w3.org/2000/svg" xmlns:xlink="http://www.w3.org/1999/xlink" x="0" y="0" width="775" height="202" viewBox="0, 0, 775, 202">
  <g id="Layer_1">
    <path d="M395.685,195.32 C395.685,199.4 398.004,201.999 402.204,201.999 C403.805,201.999 405.044,201.839 406.164,201.52 L406.004,197.28 C405.444,197.64 404.524,197.839 403.564,197.839 C401.524,197.839 401.044,196.199 401.044,194.44 L401.044,184.839 L405.805,184.839 L405.805,180.919 L401.044,180.919 L401.044,175.079 L395.685,176.8 L395.685,180.919 L391.725,180.919 L391.725,184.839 L395.685,184.839 L395.685,195.32 z M388.764,181.199 C387.084,180.839 385.444,180.44 382.924,180.44 C378.724,180.44 374.844,182.4 374.844,186.839 C374.844,194.28 384.164,191.52 384.164,195.56 C384.164,197.56 382.004,198.079 380.644,198.079 C378.804,198.079 377.044,197.56 375.364,196.72 L375.044,201.119 C377.004,201.64 379.084,201.999 381.125,201.999 C385.484,201.999 389.765,200.079 389.765,195.28 C389.765,187.839 380.444,189.919 380.444,186.64 C380.444,184.879 382.164,184.36 383.604,184.36 C385.564,184.36 386.764,184.68 388.404,185.24 L388.764,181.199 z M370.646,180.919 L365.285,180.919 L365.285,190.999 C365.285,193.64 364.445,197.839 360.565,197.839 C357.125,197.839 357.085,194.44 357.085,191.919 L357.085,180.919 L351.725,180.919 L351.725,193.919 C351.725,198.56 353.845,201.999 358.725,201.999 C361.525,201.999 363.845,200.72 365.485,198.72 L365.565,198.72 L365.565,201.52 L370.646,201.52 L370.646,180.919 z M336.285,201.52 L341.646,201.52 L341.646,193.959 C341.646,190.999 341.646,185.56 346.005,185.56 C346.965,185.56 347.925,185.72 348.405,185.999 L348.405,180.6 C347.845,180.44 347.285,180.44 346.765,180.44 C343.565,180.44 341.365,183.68 341.125,185.6 L341.045,185.6 L341.045,180.919 L336.285,180.919 L336.285,201.52 z M323.157,201.52 L328.757,201.52 L328.757,177.999 L336.757,177.999 L336.757,173.6 L315.157,173.6 L315.157,177.999 L323.157,177.999 L323.157,201.52 z M282.037,201.52 L287.397,201.52 L287.397,191.44 C287.397,188.8 288.237,184.6 292.117,184.6 C295.557,184.6 295.597,187.999 295.597,190.52 L295.597,201.52 L300.957,201.52 L300.957,188.52 C300.957,183.879 298.837,180.44 293.957,180.44 C291.157,180.44 288.877,181.36 287.197,183.72 L287.117,183.72 L287.117,180.919 L282.037,180.919 L282.037,201.52 z M261.877,190.72 C261.877,187.64 263.557,184.6 267.037,184.6 C270.557,184.6 272.237,187.56 272.237,190.72 C272.237,194.159 271.157,197.839 267.037,197.839 C262.957,197.839 261.877,194.119 261.877,190.72 z M256.277,191.36 C256.277,197.28 260.237,201.999 267.037,201.999 C273.877,201.999 277.837,197.28 277.837,191.36 C277.837,184.56 273.157,180.44 267.037,180.44 C260.957,180.44 256.277,184.56 256.277,191.36 z M246.597,177.159 L251.957,177.159 L251.957,172.039 L246.597,172.039 z M246.597,201.52 L251.957,201.52 L251.957,180.919 L246.597,180.919 z M232.678,195.32 C232.678,199.4 234.999,201.999 239.198,201.999 C240.798,201.999 242.039,201.839 243.158,201.52 L242.998,197.28 C242.438,197.64 241.519,197.839 240.558,197.839 C238.519,197.839 238.038,196.199 238.038,194.44 L238.038,184.839 L242.798,184.839 L242.798,180.919 L238.038,180.919 L238.038,175.079 L232.678,176.8 L232.678,180.919 L228.718,180.919 L228.718,184.839 L232.678,184.839 L232.678,195.32 z M212.479,195.56 C212.479,192.4 216.038,191.999 218.438,191.999 L220.758,191.999 C220.758,193.6 220.519,195.079 219.638,196.24 C218.798,197.36 217.519,198.079 215.878,198.079 C213.958,198.079 212.479,197.32 212.479,195.56 z M209.758,186.6 C211.558,185.24 213.838,184.36 216.118,184.36 C219.278,184.36 220.758,185.48 220.758,188.8 L217.798,188.8 C215.558,188.8 212.918,188.999 210.878,189.999 C208.838,190.999 207.358,192.8 207.358,195.879 C207.358,199.8 210.918,201.999 214.558,201.999 C216.999,201.999 219.678,200.72 220.918,198.44 L220.998,198.44 C221.039,199.079 221.039,200.44 221.238,201.52 L225.958,201.52 C225.838,199.919 225.758,198.48 225.718,196.919 C225.678,195.4 225.638,193.839 225.638,191.76 L225.638,189.119 C225.638,183.039 223.038,180.44 216.758,180.44 C214.479,180.44 211.678,181.039 209.598,181.999 L209.758,186.6 z M197.958,201.52 L203.158,201.52 L203.158,171.52 L197.798,171.52 L197.798,183.32 L197.718,183.32 C196.118,181.36 194.238,180.44 191.558,180.44 C185.238,180.44 182.918,185.48 182.918,191.159 C182.918,196.8 185.238,201.999 191.558,201.999 C194.078,201.999 196.278,201.199 197.878,199.199 L197.958,199.199 L197.958,201.52 z M188.518,191.159 C188.518,188.4 189.479,184.6 192.958,184.6 C196.398,184.6 197.758,188.28 197.758,191.159 C197.758,194.079 196.598,197.839 193.038,197.839 C189.518,197.839 188.518,193.999 188.518,191.159 z M159.798,201.52 L165.158,201.52 L165.158,191.44 C165.158,188.8 165.998,184.6 169.878,184.6 C173.318,184.6 173.358,187.999 173.358,190.52 L173.358,201.52 L178.718,201.52 L178.718,188.52 C178.718,183.879 176.598,180.44 171.718,180.44 C168.918,180.44 166.638,181.36 164.958,183.72 L164.878,183.72 L164.878,180.919 L159.798,180.919 L159.798,201.52 z M154.279,180.919 L148.919,180.919 L148.919,190.999 C148.919,193.64 148.079,197.839 144.199,197.839 C140.759,197.839 140.719,194.44 140.719,191.919 L140.719,180.919 L135.359,180.919 L135.359,193.919 C135.359,198.56 137.479,201.999 142.359,201.999 C145.159,201.999 147.479,200.72 149.119,198.72 L149.199,198.72 L149.199,201.52 L154.279,201.52 L154.279,180.919 z M115.199,190.72 C115.199,187.64 116.879,184.6 120.359,184.6 C123.879,184.6 125.559,187.56 125.559,190.72 C125.559,194.159 124.479,197.839 120.359,197.839 C116.279,197.839 115.199,194.119 115.199,190.72 z M109.599,191.36 C109.599,197.28 113.559,201.999 120.359,201.999 C127.199,201.999 131.159,197.28 131.159,191.36 C131.159,184.56 126.479,180.44 120.359,180.44 C114.279,180.44 109.599,184.56 109.599,191.36 z M91.399,201.52 L96.999,201.52 L96.999,189.28 L106.439,189.28 L106.439,184.879 L96.999,184.879 L96.999,177.999 L106.919,177.999 L106.919,173.6 L91.399,173.6 L91.399,201.52 z M73.559,174.119 C71.519,173.44 69.279,173.119 66.879,173.119 C61.96,173.119 57.119,175.4 57.119,181.64 C57.119,190.879 69.359,188.68 69.359,193.999 C69.359,196.52 66.52,197.6 64.399,197.6 C62.199,197.6 60,196.919 58.079,195.879 L57.559,200.919 C60.319,201.6 61.679,201.999 64.719,201.999 C70.359,201.999 75.199,199.68 75.199,193.56 C75.199,184.199 62.96,186.24 62.96,181.4 C62.96,178.36 65.439,177.52 67.359,177.52 C69.319,177.52 71.279,177.959 73.039,178.72 L73.559,174.119 z M29.16,201.52 L34.76,201.52 L34.76,189.28 L45.96,189.28 L45.96,201.52 L51.561,201.52 L51.561,173.6 L45.96,173.6 L45.96,184.879 L34.76,184.879 L34.76,173.6 L29.16,173.6 L29.16,201.52 z M0,201.52 L5.36,201.52 L5.36,180.64 L5.44,180.64 L16.12,201.52 L22.96,201.52 L22.96,173.6 L17.6,173.6 L17.6,194.48 L17.521,194.48 L6.88,173.6 L0,173.6 L0,201.52" fill="#1A1919"/>
    <path d="M772.622,121.039 C770.102,120.499 767.642,119.9 763.862,119.9 C757.563,119.9 751.742,122.839 751.742,129.499 C751.742,140.659 765.722,136.52 765.722,142.579 C765.722,145.579 762.482,146.36 760.442,146.36 C757.682,146.36 755.042,145.579 752.521,144.32 L752.042,150.919 C754.982,151.699 758.102,152.24 761.162,152.24 C767.702,152.24 774.122,149.36 774.122,142.159 C774.122,130.999 760.142,134.119 760.142,129.199 C760.142,126.56 762.722,125.78 764.882,125.78 C767.822,125.78 769.622,126.26 772.082,127.1 L772.622,121.039 z M737.222,151.52 L745.262,151.52 L745.262,106.52 L737.222,106.52 z M709.382,142.579 C709.382,137.839 714.722,137.24 718.322,137.24 L721.802,137.24 C721.802,139.64 721.442,141.86 720.122,143.6 C718.862,145.28 716.942,146.36 714.482,146.36 C711.602,146.36 709.382,145.22 709.382,142.579 z M705.302,129.14 C708.002,127.1 711.422,125.78 714.842,125.78 C719.582,125.78 721.802,127.459 721.802,132.44 L717.362,132.44 C714.002,132.44 710.042,132.74 706.982,134.24 C703.922,135.74 701.702,138.44 701.702,143.06 C701.702,148.94 707.042,152.24 712.502,152.24 C716.162,152.24 720.182,150.32 722.042,146.9 L722.162,146.9 C722.222,147.86 722.222,149.9 722.521,151.52 L729.602,151.52 C729.422,149.119 729.302,146.959 729.242,144.619 C729.182,142.339 729.122,139.999 729.122,136.879 L729.122,132.919 C729.122,123.8 725.222,119.9 715.802,119.9 C712.382,119.9 708.182,120.8 705.063,122.24 L705.302,129.14 z M682.983,142.22 C682.983,148.339 686.463,152.24 692.763,152.24 C695.163,152.24 697.023,151.999 698.703,151.52 L698.463,145.159 C697.623,145.699 696.243,145.999 694.803,145.999 C691.743,145.999 691.023,143.539 691.023,140.9 L691.023,126.499 L698.163,126.499 L698.163,120.619 L691.023,120.619 L691.023,111.86 L682.983,114.44 L682.983,120.619 L677.043,120.619 L677.043,126.499 L682.983,126.499 L682.983,142.22 z M663.843,114.98 L671.883,114.98 L671.883,107.3 L663.843,107.3 z M663.843,151.52 L671.883,151.52 L671.883,120.619 L663.843,120.619 z M642.303,126.14 C647.523,126.14 648.963,131.839 648.963,135.98 C648.963,140.24 647.463,145.999 642.183,145.999 C636.843,145.999 635.104,140.36 635.104,135.98 C635.104,131.659 637.143,126.14 642.303,126.14 z M627.003,164.119 L635.043,164.119 L635.043,147.98 L635.163,147.98 C637.983,151.4 640.803,152.24 644.223,152.24 C653.883,152.24 657.363,144.44 657.363,135.98 C657.363,127.459 653.883,119.9 644.403,119.9 C639.663,119.9 636.604,121.999 634.803,124.999 L634.683,124.999 L634.683,120.619 L627.003,120.619 L627.003,164.119 z M619.264,121.039 C616.744,120.499 614.284,119.9 610.504,119.9 C604.204,119.9 598.384,122.839 598.384,129.499 C598.384,140.659 612.364,136.52 612.364,142.579 C612.364,145.579 609.124,146.36 607.084,146.36 C604.324,146.36 601.684,145.579 599.164,144.32 L598.684,150.919 C601.624,151.699 604.744,152.24 607.804,152.24 C614.344,152.24 620.764,149.36 620.764,142.159 C620.764,130.999 606.784,134.119 606.784,129.199 C606.784,126.56 609.364,125.78 611.524,125.78 C614.464,125.78 616.264,126.26 618.724,127.1 L619.264,121.039 z M570.125,135.32 C570.125,130.699 572.645,126.14 577.865,126.14 C583.145,126.14 585.665,130.579 585.665,135.32 C585.665,140.48 584.045,145.999 577.865,145.999 C571.745,145.999 570.125,140.419 570.125,135.32 z M561.725,136.28 C561.725,145.159 567.665,152.24 577.865,152.24 C588.125,152.24 594.065,145.159 594.065,136.28 C594.065,126.079 587.045,119.9 577.865,119.9 C568.745,119.9 561.725,126.079 561.725,136.28 z M521.105,151.52 L529.506,151.52 L529.506,133.159 L546.305,133.159 L546.305,151.52 L554.706,151.52 L554.706,109.64 L546.305,109.64 L546.305,126.56 L529.506,126.56 L529.506,109.64 L521.105,109.64 L521.105,151.52 z M475.746,120.619 L466.865,120.619 L478.686,153.079 C478.686,156.379 476.706,158.6 473.466,158.6 C471.485,158.6 470.346,158.419 469.326,158.06 L468.785,163.999 C470.646,164.539 472.566,164.839 474.485,164.839 C482.886,164.839 484.746,158.119 487.326,151.28 L498.906,120.619 L490.746,120.619 L483.306,143.18 L483.186,143.18 L475.746,120.619 z M449.646,142.22 C449.646,148.339 453.126,152.24 459.426,152.24 C461.826,152.24 463.686,151.999 465.366,151.52 L465.126,145.159 C464.286,145.699 462.906,145.999 461.466,145.999 C458.406,145.999 457.686,143.539 457.686,140.9 L457.686,126.499 L464.826,126.499 L464.826,120.619 L457.686,120.619 L457.686,111.86 L449.646,114.44 L449.646,120.619 L443.706,120.619 L443.706,126.499 L449.646,126.499 L449.646,142.22 z M430.506,114.98 L438.546,114.98 L438.546,107.3 L430.506,107.3 z M430.506,151.52 L438.546,151.52 L438.546,120.619 L430.506,120.619 z M422.587,121.039 C420.067,120.499 417.607,119.9 413.827,119.9 C407.527,119.9 401.707,122.839 401.707,129.499 C401.707,140.659 415.688,136.52 415.688,142.579 C415.688,145.579 412.447,146.36 410.407,146.36 C407.646,146.36 405.007,145.579 402.487,144.32 L402.007,150.919 C404.947,151.699 408.067,152.24 411.127,152.24 C417.667,152.24 424.087,149.36 424.087,142.159 C424.087,130.999 410.107,134.119 410.107,129.199 C410.107,126.56 412.688,125.78 414.847,125.78 C417.787,125.78 419.587,126.26 422.047,127.1 L422.587,121.039 z M380.527,151.52 L388.567,151.52 L388.567,140.18 C388.567,135.74 388.567,127.579 395.107,127.579 C396.547,127.579 397.987,127.82 398.707,128.24 L398.707,120.14 C397.867,119.9 397.027,119.9 396.247,119.9 C391.447,119.9 388.147,124.76 387.787,127.64 L387.667,127.64 L387.667,120.619 L380.527,120.619 L380.527,151.52 z M371.767,143.24 C368.767,144.919 365.407,146.36 361.507,146.36 C356.527,146.36 353.047,143.539 352.687,138.56 L374.047,138.56 C374.047,127.76 370.807,119.9 359.347,119.9 C349.747,119.9 345.007,127.28 345.007,136.22 C345.007,146.36 350.947,152.24 361.147,152.24 C365.467,152.24 368.827,151.4 371.767,149.78 L371.767,143.24 z M352.687,133.039 C353.047,128.9 355.327,125.78 359.827,125.78 C364.327,125.78 366.127,129.14 366.367,133.039 L352.687,133.039 z M321.667,151.52 L330.727,151.52 L342.127,120.619 L334.087,120.619 L326.647,143.119 L326.527,143.119 L318.847,120.619 L310.207,120.619 L321.667,151.52 z M297.127,114.98 L305.167,114.98 L305.167,107.3 L297.127,107.3 z M297.127,151.52 L305.167,151.52 L305.167,120.619 L297.127,120.619 z M260.288,151.52 L268.328,151.52 L268.328,136.4 C268.328,132.44 269.588,126.14 275.408,126.14 C280.568,126.14 280.628,131.24 280.628,135.02 L280.628,151.52 L288.668,151.52 L288.668,132.02 C288.668,125.06 285.488,119.9 278.168,119.9 C273.968,119.9 270.548,121.28 268.028,124.82 L267.908,124.82 L267.908,120.619 L260.288,120.619 L260.288,151.52 z M217.389,136.4 C217.389,147.619 223.749,152.24 234.489,152.24 C245.229,152.24 251.589,147.619 251.589,136.4 L251.589,109.64 L243.189,109.64 L243.189,133.82 C243.189,140.959 240.909,145.64 234.489,145.64 C228.069,145.64 225.789,140.959 225.789,133.82 L225.789,109.64 L217.389,109.64 L217.389,136.4 z M184.209,151.52 L192.009,151.52 L192.009,106.52 L183.969,106.52 L183.969,124.22 L183.849,124.22 C181.449,121.28 178.629,119.9 174.609,119.9 C165.129,119.9 161.649,127.459 161.649,135.98 C161.649,144.44 165.129,152.24 174.609,152.24 C178.389,152.24 181.689,151.039 184.089,148.039 L184.209,148.039 L184.209,151.52 z M170.049,135.98 C170.049,131.839 171.489,126.14 176.709,126.14 C181.869,126.14 183.909,131.659 183.909,135.98 C183.909,140.36 182.169,145.999 176.829,145.999 C171.549,145.999 170.049,140.24 170.049,135.98 z M141.539,151.52 L149.579,151.52 L149.579,140.18 C149.579,135.74 149.579,127.579 156.119,127.579 C157.559,127.579 158.999,127.82 159.719,128.24 L159.719,120.14 C158.879,119.9 158.039,119.9 157.259,119.9 C152.459,119.9 149.159,124.76 148.799,127.64 L148.679,127.64 L148.679,120.619 L141.539,120.619 L141.539,151.52 z M111.119,135.32 C111.119,130.699 113.639,126.14 118.859,126.14 C124.139,126.14 126.659,130.579 126.659,135.32 C126.659,140.48 125.039,145.999 118.859,145.999 C112.739,145.999 111.119,140.419 111.119,135.32 z M102.719,136.28 C102.719,145.159 108.659,152.24 118.859,152.24 C129.119,152.24 135.059,145.159 135.059,136.28 C135.059,126.079 128.039,119.9 118.859,119.9 C109.739,119.9 102.719,126.079 102.719,136.28 z M84.3,151.52 L92.34,151.52 L92.34,126.499 L99.36,126.499 L99.36,120.619 L92.34,120.619 L92.34,116.78 C92.34,114.379 93.18,112.039 95.88,112.039 C97.62,112.039 98.64,112.699 99.36,113.119 L100.02,106.459 C98.46,106.1 96.18,105.8 94.14,105.8 C87.78,105.8 84.3,110.119 84.3,116.3 L84.3,120.619 L78.36,120.619 L78.36,126.499 L84.3,126.499 L84.3,151.52 z M55.02,135.32 L44.4,151.52 L53.22,151.52 L60.18,139.999 L67.08,151.52 L76.68,151.52 L66.24,135.32 L75.48,120.619 L66.96,120.619 L61.02,130.699 L54.96,120.619 L45.48,120.619 L55.02,135.32 z M8.76,130.459 C8.76,123.079 12.18,115.52 20.52,115.52 C28.86,115.52 32.28,123.079 32.28,130.459 C32.28,138.02 29.1,145.64 20.52,145.64 C11.94,145.64 8.76,138.02 8.76,130.459 z M-0,130.459 C-0,143.3 7.08,152.24 20.52,152.24 C33.78,152.24 41.04,143.119 41.04,130.459 C41.04,117.8 33.66,108.919 20.52,108.919 C7.2,108.919 -0,117.619 -0,130.459" fill="#1A1919"/>
    <path d="M203.271,10.293 L198.831,23.922 C195.283,22.26 190.452,20.791 183.656,20.791 C176.367,20.791 170.45,21.86 170.45,27.36 C170.45,37.06 197.159,33.44 197.159,54.23 C197.159,73.152 179.513,78.06 163.548,78.06 C156.453,78.06 148.271,76.385 142.264,74.518 L146.602,60.593 C150.239,62.951 157.542,64.522 163.548,64.522 C169.272,64.522 178.231,63.44 178.231,56.382 C178.231,45.394 151.521,49.514 151.521,30.207 C151.521,12.547 167.097,7.253 182.179,7.253 C190.66,7.253 198.636,8.142 203.271,10.293 z M150.343,8.425 L136.049,76.875 L117.625,76.875 L123.736,47.557 L101.946,47.557 L95.835,76.875 L77.411,76.875 L91.706,8.425 L110.129,8.425 L104.717,34.613 L126.494,34.613 L131.919,8.425 L150.343,8.425 z M84.908,8.425 L70.329,76.875 L47.452,76.875 L33.068,29.512 L32.874,29.512 L23.305,76.875 L5.957,76.875 L20.651,8.425 L43.606,8.425 L57.706,55.891 L57.9,55.891 L67.559,8.425 L84.908,8.425 z M0,85.26 L211.18,85.26 L211.18,0.22 L0,0.22 z" fill="#1A1919"/>
  </g>
</svg>
