<?xml version="1.0" encoding="UTF-8"?>
<!DOCTYPE svg PUBLIC "-//W3C//DTD SVG 1.1//EN" "http://www.w3.org/Graphics/SVG/1.1/DTD/svg11.dtd">
<svg version="1.1" xmlns="http://www.w3.org/2000/svg" xmlns:xlink="http://www.w3.org/1999/xlink" x="0" y="0" width="777" height="202" viewBox="0, 0, 777, 202">
  <defs>
    <clipPath id="Clip_1">
      <path d="M0.06,0.22 L776.221,0.22 L776.221,202 L0.06,202 z"/>
    </clipPath>
  </defs>
  <g id="Layer_1">
    <path d="M569.193,3.979 L772.304,3.979 L772.304,82.477 L569.193,82.477 z" fill="#FFFFFE"/>
    <g clip-path="url(#Clip_1)">
      <path d="M765.182,195.32 C765.182,199.4 767.502,201.999 771.702,201.999 C773.302,201.999 774.542,201.84 775.662,201.52 L775.502,197.28 C774.942,197.64 774.022,197.84 773.062,197.84 C771.022,197.84 770.542,196.199 770.542,194.44 L770.542,184.84 L775.302,184.84 L775.302,180.919 L770.542,180.919 L770.542,175.079 L765.182,176.8 L765.182,180.919 L761.222,180.919 L761.222,184.84 L765.182,184.84 L765.182,195.32 z M758.262,181.199 C756.582,180.84 754.942,180.44 752.422,180.44 C748.222,180.44 744.343,182.4 744.343,186.84 C744.343,194.28 753.662,191.52 753.662,195.56 C753.662,197.56 751.502,198.079 750.142,198.079 C748.302,198.079 746.542,197.56 744.862,196.72 L744.542,201.119 C746.502,201.64 748.582,201.999 750.622,201.999 C754.982,201.999 759.262,200.079 759.262,195.28 C759.262,187.84 749.942,189.919 749.942,186.64 C749.942,184.879 751.662,184.36 753.102,184.36 C755.062,184.36 756.262,184.68 757.902,185.24 L758.262,181.199 z M740.143,180.919 L734.783,180.919 L734.783,190.999 C734.783,193.64 733.943,197.84 730.063,197.84 C726.623,197.84 726.583,194.44 726.583,191.919 L726.583,180.919 L721.223,180.919 L721.223,193.919 C721.223,198.56 723.343,201.999 728.223,201.999 C731.023,201.999 733.343,200.72 734.983,198.72 L735.063,198.72 L735.063,201.52 L740.143,201.52 L740.143,180.919 z M705.783,201.52 L711.143,201.52 L711.143,193.959 C711.143,190.999 711.143,185.56 715.503,185.56 C716.463,185.56 717.423,185.72 717.903,185.999 L717.903,180.6 C717.343,180.44 716.783,180.44 716.263,180.44 C713.063,180.44 710.863,183.68 710.623,185.6 L710.543,185.6 L710.543,180.919 L705.783,180.919 L705.783,201.52 z M692.655,201.52 L698.255,201.52 L698.255,177.999 L706.255,177.999 L706.255,173.6 L684.655,173.6 L684.655,177.999 L692.655,177.999 L692.655,201.52 z M651.535,201.52 L656.895,201.52 L656.895,191.44 C656.895,188.8 657.735,184.6 661.615,184.6 C665.055,184.6 665.095,187.999 665.095,190.52 L665.095,201.52 L670.455,201.52 L670.455,188.52 C670.455,183.879 668.335,180.44 663.455,180.44 C660.655,180.44 658.375,181.36 656.695,183.72 L656.615,183.72 L656.615,180.919 L651.535,180.919 L651.535,201.52 z M631.375,190.72 C631.375,187.64 633.055,184.6 636.535,184.6 C640.055,184.6 641.735,187.56 641.735,190.72 C641.735,194.159 640.655,197.84 636.535,197.84 C632.455,197.84 631.375,194.119 631.375,190.72 z M625.775,191.36 C625.775,197.28 629.735,201.999 636.535,201.999 C643.375,201.999 647.335,197.28 647.335,191.36 C647.335,184.56 642.655,180.44 636.535,180.44 C630.455,180.44 625.775,184.56 625.775,191.36 z M616.095,177.159 L621.455,177.159 L621.455,172.039 L616.095,172.039 z M616.095,201.52 L621.455,201.52 L621.455,180.919 L616.095,180.919 z M602.177,195.32 C602.177,199.4 604.496,201.999 608.696,201.999 C610.296,201.999 611.536,201.84 612.656,201.52 L612.496,197.28 C611.936,197.64 611.016,197.84 610.056,197.84 C608.016,197.84 607.536,196.199 607.536,194.44 L607.536,184.84 L612.296,184.84 L612.296,180.919 L607.536,180.919 L607.536,175.079 L602.177,176.8 L602.177,180.919 L598.216,180.919 L598.216,184.84 L602.177,184.84 L602.177,195.32 z M581.976,195.56 C581.976,192.4 585.536,191.999 587.936,191.999 L590.256,191.999 C590.256,193.6 590.016,195.079 589.136,196.24 C588.296,197.36 587.016,198.079 585.376,198.079 C583.456,198.079 581.976,197.32 581.976,195.56 z M579.256,186.6 C581.056,185.24 583.336,184.36 585.616,184.36 C588.776,184.36 590.256,185.48 590.256,188.8 L587.296,188.8 C585.056,188.8 582.416,188.999 580.376,189.999 C578.336,190.999 576.856,192.8 576.856,195.879 C576.856,199.8 580.416,201.999 584.056,201.999 C586.496,201.999 589.176,200.72 590.416,198.44 L590.496,198.44 C590.536,199.079 590.536,200.44 590.736,201.52 L595.456,201.52 C595.336,199.919 595.256,198.48 595.216,196.919 C595.176,195.4 595.136,193.84 595.136,191.76 L595.136,189.119 C595.136,183.039 592.536,180.44 586.256,180.44 C583.976,180.44 581.177,181.039 579.096,181.999 L579.256,186.6 z M567.456,201.52 L572.656,201.52 L572.656,171.52 L567.296,171.52 L567.296,183.32 L567.217,183.32 C565.616,181.36 563.736,180.44 561.056,180.44 C554.736,180.44 552.416,185.48 552.416,191.159 C552.416,196.8 554.736,201.999 561.056,201.999 C563.576,201.999 565.776,201.199 567.376,199.199 L567.456,199.199 L567.456,201.52 z M558.016,191.159 C558.016,188.4 558.976,184.6 562.456,184.6 C565.896,184.6 567.256,188.28 567.256,191.159 C567.256,194.079 566.096,197.84 562.536,197.84 C559.016,197.84 558.016,193.999 558.016,191.159 z M529.296,201.52 L534.656,201.52 L534.656,191.44 C534.656,188.8 535.496,184.6 539.376,184.6 C542.816,184.6 542.856,187.999 542.856,190.52 L542.856,201.52 L548.216,201.52 L548.216,188.52 C548.216,183.879 546.096,180.44 541.216,180.44 C538.416,180.44 536.136,181.36 534.456,183.72 L534.376,183.72 L534.376,180.919 L529.296,180.919 L529.296,201.52 z M523.777,180.919 L518.417,180.919 L518.417,190.999 C518.417,193.64 517.577,197.84 513.697,197.84 C510.257,197.84 510.217,194.44 510.217,191.919 L510.217,180.919 L504.857,180.919 L504.857,193.919 C504.857,198.56 506.977,201.999 511.857,201.999 C514.657,201.999 516.977,200.72 518.617,198.72 L518.697,198.72 L518.697,201.52 L523.777,201.52 L523.777,180.919 z M484.697,190.72 C484.697,187.64 486.377,184.6 489.857,184.6 C493.377,184.6 495.057,187.56 495.057,190.72 C495.057,194.159 493.977,197.84 489.857,197.84 C485.777,197.84 484.697,194.119 484.697,190.72 z M479.097,191.36 C479.097,197.28 483.057,201.999 489.857,201.999 C496.697,201.999 500.657,197.28 500.657,191.36 C500.657,184.56 495.977,180.44 489.857,180.44 C483.777,180.44 479.097,184.56 479.097,191.36 z M460.897,201.52 L466.497,201.52 L466.497,189.28 L475.937,189.28 L475.937,184.879 L466.497,184.879 L466.497,177.999 L476.417,177.999 L476.417,173.6 L460.897,173.6 L460.897,201.52 z M443.057,174.119 C441.017,173.44 438.777,173.119 436.377,173.119 C431.457,173.119 426.617,175.4 426.617,181.64 C426.617,190.879 438.857,188.68 438.857,193.999 C438.857,196.52 436.017,197.6 433.897,197.6 C431.697,197.6 429.497,196.919 427.577,195.879 L427.057,200.919 C429.817,201.6 431.177,201.999 434.217,201.999 C439.857,201.999 444.697,199.68 444.697,193.56 C444.697,184.199 432.457,186.24 432.457,181.4 C432.457,178.36 434.937,177.52 436.857,177.52 C438.817,177.52 440.777,177.959 442.537,178.72 L443.057,174.119 z M398.658,201.52 L404.258,201.52 L404.258,189.28 L415.458,189.28 L415.458,201.52 L421.058,201.52 L421.058,173.6 L415.458,173.6 L415.458,184.879 L404.258,184.879 L404.258,173.6 L398.658,173.6 L398.658,201.52 z M369.498,201.52 L374.858,201.52 L374.858,180.64 L374.938,180.64 L385.618,201.52 L392.458,201.52 L392.458,173.6 L387.098,173.6 L387.098,194.48 L387.018,194.48 L376.378,173.6 L369.498,173.6 L369.498,201.52" fill="#1A1919"/>
      <path d="M772.622,121.039 C770.102,120.499 767.642,119.9 763.862,119.9 C757.562,119.9 751.742,122.84 751.742,129.499 C751.742,140.659 765.722,136.52 765.722,142.579 C765.722,145.579 762.482,146.36 760.442,146.36 C757.682,146.36 755.042,145.579 752.522,144.32 L752.042,150.919 C754.982,151.699 758.102,152.24 761.162,152.24 C767.702,152.24 774.122,149.36 774.122,142.159 C774.122,130.999 760.142,134.119 760.142,129.199 C760.142,126.56 762.722,125.78 764.882,125.78 C767.822,125.78 769.622,126.26 772.082,127.1 L772.622,121.039 z M737.222,151.52 L745.262,151.52 L745.262,106.52 L737.222,106.52 z M709.382,142.579 C709.382,137.84 714.722,137.24 718.322,137.24 L721.802,137.24 C721.802,139.64 721.442,141.86 720.122,143.6 C718.862,145.28 716.942,146.36 714.482,146.36 C711.602,146.36 709.382,145.22 709.382,142.579 z M705.302,129.14 C708.002,127.1 711.422,125.78 714.842,125.78 C719.582,125.78 721.802,127.459 721.802,132.44 L717.362,132.44 C714.002,132.44 710.042,132.74 706.982,134.24 C703.922,135.74 701.702,138.44 701.702,143.06 C701.702,148.94 707.042,152.24 712.502,152.24 C716.162,152.24 720.182,150.32 722.042,146.9 L722.162,146.9 C722.222,147.86 722.222,149.9 722.522,151.52 L729.602,151.52 C729.422,149.119 729.302,146.959 729.242,144.619 C729.182,142.34 729.122,139.999 729.122,136.879 L729.122,132.919 C729.122,123.8 725.222,119.9 715.802,119.9 C712.382,119.9 708.182,120.8 705.062,122.24 L705.302,129.14 z M682.983,142.22 C682.983,148.34 686.463,152.24 692.763,152.24 C695.163,152.24 697.023,151.999 698.703,151.52 L698.463,145.159 C697.623,145.699 696.243,145.999 694.803,145.999 C691.743,145.999 691.023,143.539 691.023,140.9 L691.023,126.499 L698.163,126.499 L698.163,120.619 L691.023,120.619 L691.023,111.86 L682.983,114.44 L682.983,120.619 L677.043,120.619 L677.043,126.499 L682.983,126.499 L682.983,142.22 z M663.844,114.98 L671.883,114.98 L671.883,107.3 L663.844,107.3 z M663.844,151.52 L671.883,151.52 L671.883,120.619 L663.844,120.619 z M642.303,126.14 C647.523,126.14 648.963,131.84 648.963,135.98 C648.963,140.24 647.463,145.999 642.183,145.999 C636.844,145.999 635.103,140.36 635.103,135.98 C635.103,131.659 637.143,126.14 642.303,126.14 z M627.003,164.119 L635.043,164.119 L635.043,147.98 L635.163,147.98 C637.983,151.4 640.803,152.24 644.223,152.24 C653.883,152.24 657.363,144.44 657.363,135.98 C657.363,127.459 653.883,119.9 644.403,119.9 C639.663,119.9 636.603,121.999 634.803,124.999 L634.683,124.999 L634.683,120.619 L627.003,120.619 L627.003,164.119 z M619.264,121.039 C616.744,120.499 614.284,119.9 610.504,119.9 C604.204,119.9 598.384,122.84 598.384,129.499 C598.384,140.659 612.364,136.52 612.364,142.579 C612.364,145.579 609.124,146.36 607.084,146.36 C604.324,146.36 601.684,145.579 599.164,144.32 L598.684,150.919 C601.624,151.699 604.744,152.24 607.804,152.24 C614.344,152.24 620.764,149.36 620.764,142.159 C620.764,130.999 606.784,134.119 606.784,129.199 C606.784,126.56 609.364,125.78 611.524,125.78 C614.464,125.78 616.264,126.26 618.724,127.1 L619.264,121.039 z M570.125,135.32 C570.125,130.699 572.645,126.14 577.865,126.14 C583.145,126.14 585.665,130.579 585.665,135.32 C585.665,140.48 584.045,145.999 577.865,145.999 C571.745,145.999 570.125,140.419 570.125,135.32 z M561.725,136.28 C561.725,145.159 567.665,152.24 577.865,152.24 C588.125,152.24 594.065,145.159 594.065,136.28 C594.065,126.079 587.045,119.9 577.865,119.9 C568.745,119.9 561.725,126.079 561.725,136.28 z M521.105,151.52 L529.506,151.52 L529.506,133.159 L546.305,133.159 L546.305,151.52 L554.706,151.52 L554.706,109.64 L546.305,109.64 L546.305,126.56 L529.506,126.56 L529.506,109.64 L521.105,109.64 L521.105,151.52 z M475.746,120.619 L466.865,120.619 L478.686,153.079 C478.686,156.379 476.706,158.6 473.466,158.6 C471.485,158.6 470.346,158.419 469.326,158.06 L468.785,163.999 C470.646,164.539 472.566,164.84 474.485,164.84 C482.886,164.84 484.746,158.119 487.326,151.28 L498.906,120.619 L490.746,120.619 L483.306,143.18 L483.186,143.18 L475.746,120.619 z M449.646,142.22 C449.646,148.34 453.126,152.24 459.426,152.24 C461.826,152.24 463.686,151.999 465.366,151.52 L465.126,145.159 C464.286,145.699 462.906,145.999 461.466,145.999 C458.406,145.999 457.686,143.539 457.686,140.9 L457.686,126.499 L464.826,126.499 L464.826,120.619 L457.686,120.619 L457.686,111.86 L449.646,114.44 L449.646,120.619 L443.706,120.619 L443.706,126.499 L449.646,126.499 L449.646,142.22 z M430.506,114.98 L438.546,114.98 L438.546,107.3 L430.506,107.3 z M430.506,151.52 L438.546,151.52 L438.546,120.619 L430.506,120.619 z M422.587,121.039 C420.067,120.499 417.607,119.9 413.827,119.9 C407.527,119.9 401.707,122.84 401.707,129.499 C401.707,140.659 415.687,136.52 415.687,142.579 C415.687,145.579 412.447,146.36 410.407,146.36 C407.647,146.36 405.007,145.579 402.487,144.32 L402.007,150.919 C404.947,151.699 408.067,152.24 411.127,152.24 C417.667,152.24 424.087,149.36 424.087,142.159 C424.087,130.999 410.107,134.119 410.107,129.199 C410.107,126.56 412.687,125.78 414.847,125.78 C417.787,125.78 419.587,126.26 422.047,127.1 L422.587,121.039 z M380.527,151.52 L388.567,151.52 L388.567,140.18 C388.567,135.74 388.567,127.579 395.107,127.579 C396.547,127.579 397.987,127.82 398.707,128.24 L398.707,120.14 C397.867,119.9 397.027,119.9 396.247,119.9 C391.447,119.9 388.147,124.76 387.787,127.64 L387.667,127.64 L387.667,120.619 L380.527,120.619 L380.527,151.52 z M371.767,143.24 C368.767,144.919 365.407,146.36 361.507,146.36 C356.527,146.36 353.047,143.539 352.687,138.56 L374.047,138.56 C374.047,127.76 370.807,119.9 359.347,119.9 C349.747,119.9 345.007,127.28 345.007,136.22 C345.007,146.36 350.947,152.24 361.147,152.24 C365.467,152.24 368.827,151.4 371.767,149.78 L371.767,143.24 z M352.687,133.039 C353.047,128.9 355.327,125.78 359.827,125.78 C364.327,125.78 366.127,129.14 366.367,133.039 L352.687,133.039 z M321.667,151.52 L330.727,151.52 L342.127,120.619 L334.087,120.619 L326.647,143.119 L326.527,143.119 L318.847,120.619 L310.207,120.619 L321.667,151.52 z M297.127,114.98 L305.167,114.98 L305.167,107.3 L297.127,107.3 z M297.127,151.52 L305.167,151.52 L305.167,120.619 L297.127,120.619 z M260.288,151.52 L268.328,151.52 L268.328,136.4 C268.328,132.44 269.588,126.14 275.408,126.14 C280.568,126.14 280.628,131.24 280.628,135.02 L280.628,151.52 L288.668,151.52 L288.668,132.02 C288.668,125.06 285.488,119.9 278.168,119.9 C273.968,119.9 270.548,121.28 268.028,124.82 L267.908,124.82 L267.908,120.619 L260.288,120.619 L260.288,151.52 z M217.389,136.4 C217.389,147.619 223.749,152.24 234.489,152.24 C245.229,152.24 251.589,147.619 251.589,136.4 L251.589,109.64 L243.189,109.64 L243.189,133.82 C243.189,140.959 240.909,145.64 234.489,145.64 C228.069,145.64 225.789,140.959 225.789,133.82 L225.789,109.64 L217.389,109.64 L217.389,136.4 z M184.209,151.52 L192.009,151.52 L192.009,106.52 L183.969,106.52 L183.969,124.22 L183.849,124.22 C181.449,121.28 178.629,119.9 174.609,119.9 C165.129,119.9 161.649,127.459 161.649,135.98 C161.649,144.44 165.129,152.24 174.609,152.24 C178.389,152.24 181.689,151.039 184.089,148.039 L184.209,148.039 L184.209,151.52 z M170.049,135.98 C170.049,131.84 171.489,126.14 176.709,126.14 C181.869,126.14 183.909,131.659 183.909,135.98 C183.909,140.36 182.169,145.999 176.829,145.999 C171.549,145.999 170.049,140.24 170.049,135.98 z M141.539,151.52 L149.579,151.52 L149.579,140.18 C149.579,135.74 149.579,127.579 156.119,127.579 C157.559,127.579 158.999,127.82 159.719,128.24 L159.719,120.14 C158.879,119.9 158.039,119.9 157.259,119.9 C152.459,119.9 149.159,124.76 148.799,127.64 L148.679,127.64 L148.679,120.619 L141.539,120.619 L141.539,151.52 z M111.119,135.32 C111.119,130.699 113.639,126.14 118.859,126.14 C124.139,126.14 126.659,130.579 126.659,135.32 C126.659,140.48 125.039,145.999 118.859,145.999 C112.739,145.999 111.119,140.419 111.119,135.32 z M102.719,136.28 C102.719,145.159 108.659,152.24 118.859,152.24 C129.119,152.24 135.059,145.159 135.059,136.28 C135.059,126.079 128.039,119.9 118.859,119.9 C109.739,119.9 102.719,126.079 102.719,136.28 z M84.3,151.52 L92.34,151.52 L92.34,126.499 L99.36,126.499 L99.36,120.619 L92.34,120.619 L92.34,116.78 C92.34,114.379 93.18,112.039 95.88,112.039 C97.62,112.039 98.64,112.699 99.36,113.119 L100.02,106.459 C98.46,106.1 96.18,105.8 94.14,105.8 C87.78,105.8 84.3,110.119 84.3,116.3 L84.3,120.619 L78.36,120.619 L78.36,126.499 L84.3,126.499 L84.3,151.52 z M55.02,135.32 L44.4,151.52 L53.22,151.52 L60.18,139.999 L67.08,151.52 L76.68,151.52 L66.24,135.32 L75.48,120.619 L66.96,120.619 L61.02,130.699 L54.96,120.619 L45.48,120.619 L55.02,135.32 z M8.76,130.459 C8.76,123.079 12.18,115.52 20.52,115.52 C28.86,115.52 32.28,123.079 32.28,130.459 C32.28,138.02 29.1,145.64 20.52,145.64 C11.94,145.64 8.76,138.02 8.76,130.459 z M-0,130.459 C-0,143.3 7.08,152.24 20.52,152.24 C33.78,152.24 41.04,143.119 41.04,130.459 C41.04,117.8 33.66,108.919 20.52,108.919 C7.2,108.919 -0,117.619 -0,130.459" fill="#1A1919"/>
      <path d="M768.311,10.293 L763.87,23.922 C760.323,22.26 755.492,20.791 748.696,20.791 C741.407,20.791 735.49,21.86 735.49,27.36 C735.49,37.06 762.199,33.44 762.199,54.23 C762.199,73.152 744.553,78.06 728.588,78.06 C721.493,78.06 713.311,76.385 707.304,74.518 L711.641,60.593 C715.279,62.95 722.581,64.522 728.588,64.522 C734.312,64.522 743.271,63.44 743.271,56.382 C743.271,45.394 716.561,49.514 716.561,30.207 C716.561,12.547 732.137,7.253 747.219,7.253 C755.7,7.253 763.676,8.142 768.311,10.293 z M715.383,8.425 L701.089,76.875 L682.665,76.875 L688.776,47.558 L666.986,47.558 L660.875,76.875 L642.451,76.875 L656.745,8.425 L675.169,8.425 L669.757,34.613 L691.534,34.613 L696.959,8.425 L715.383,8.425 z M649.948,8.425 L635.369,76.875 L612.492,76.875 L598.108,29.512 L597.913,29.512 L588.345,76.875 L570.996,76.875 L585.691,8.425 L608.646,8.425 L622.746,55.892 L622.94,55.892 L632.598,8.425 L649.948,8.425 z M565.04,85.26 L776.221,85.26 L776.221,0.22 L565.04,0.22 z" fill="#1A1919"/>
    </g>
  </g>
</svg>
