<?xml version="1.0" encoding="UTF-8"?>
<!DOCTYPE svg PUBLIC "-//W3C//DTD SVG 1.1//EN" "http://www.w3.org/Graphics/SVG/1.1/DTD/svg11.dtd">
<svg version="1.1" xmlns="http://www.w3.org/2000/svg" xmlns:xlink="http://www.w3.org/1999/xlink" x="0" y="0" width="500" height="500" viewBox="0, 0, 500, 500">
  <g id="Wide" display="none">
    <g>
      <path d="M87.723,211.366 C88.749,211.877 89.645,212.601 90.322,213.497 L96.973,207.017 C97.656,207.361 98.38,207.528 99.187,207.528 C99.442,207.528 99.739,207.486 99.994,207.486 L105.791,215.538 C104.853,216.476 104.301,217.757 104.301,219.163 C104.301,221.976 106.557,224.231 109.369,224.231 C110.65,224.231 111.843,223.762 112.739,222.955 C117.255,225.679 121.046,229.429 123.9,233.861 C124.624,235.012 126.369,234.799 126.796,233.523 L126.796,233.481 C126.968,233.012 126.885,232.455 126.624,232.028 C123.515,227.174 119.296,223.08 114.353,220.101 C114.353,220.012 114.4,219.929 114.4,219.799 L123.176,218.908 C122.921,218.184 122.791,217.413 122.791,216.606 C122.791,216.262 122.833,215.882 122.88,215.538 L113.671,216.476 C112.781,215.028 111.161,214.049 109.327,214.049 C109.156,214.049 108.989,214.049 108.859,214.09 L102.937,205.866 C103.192,205.57 103.447,205.273 103.619,204.929 C111.541,206.335 118.999,209.747 125.307,214.903 C125.093,215.455 125.01,216.054 125.01,216.648 C125.01,219.46 127.265,221.721 130.077,221.721 C132.89,221.721 135.15,219.46 135.15,216.648 C135.15,213.835 132.89,211.58 130.077,211.58 C129.098,211.58 128.161,211.877 127.395,212.346 C120.833,207.017 112.906,203.267 104.213,201.695 C103.833,199.262 101.744,197.434 99.187,197.434 C96.374,197.434 94.119,199.689 94.119,202.502 C94.119,203.267 94.286,204.038 94.63,204.674 z M109.369,216.262 C110.947,216.262 112.223,217.543 112.223,219.122 C112.223,220.695 110.947,221.976 109.369,221.976 C107.796,221.976 106.515,220.695 106.515,219.122 C106.515,217.543 107.796,216.262 109.369,216.262 z M99.228,199.606 C100.807,199.606 102.083,200.882 102.083,202.46 C102.083,204.038 100.807,205.314 99.228,205.314 C97.656,205.314 96.374,204.038 96.374,202.46 C96.333,200.882 97.656,199.606 99.228,199.606 z M99.228,199.606" fill="#425563"/>
      <path d="M44.197,249.2 C44.156,249.883 44.156,250.606 44.156,251.289 C44.072,266.372 50.588,280.002 60.989,289.466 C61.458,288.44 62.135,287.544 62.989,286.867 C62.947,286.82 62.906,286.778 62.864,286.737 C52.551,277.148 47.01,263.856 47.52,249.752 C47.52,249.627 47.52,249.497 47.52,249.367 C49.609,248.731 51.145,246.815 51.145,244.513 C51.145,244.127 51.103,243.747 51.015,243.403 L60.432,237.31 C61.369,238.336 62.692,238.971 64.182,238.971 C66.994,238.971 69.254,236.716 69.254,233.903 C69.254,232.794 68.911,231.773 68.317,230.961 C71.64,226.575 76.025,223.039 81.057,220.695 C81.994,221.758 83.353,222.44 84.89,222.44 C87.489,222.44 89.661,220.481 89.916,217.924 C91.749,217.627 93.666,217.455 95.583,217.497 C97.926,217.497 100.187,217.752 102.359,218.221 C102.4,217.07 102.744,216.008 103.296,215.028 C100.572,214.429 97.76,214.133 94.859,214.174 C92.942,214.216 91.025,214.388 89.15,214.685 C88.255,213.237 86.682,212.299 84.848,212.299 C83.4,212.299 82.077,212.898 81.182,213.877 L71.213,212.429 C71.213,212.643 71.254,212.856 71.254,213.065 C71.254,214.002 71.083,214.898 70.744,215.752 L79.817,217.07 C79.817,217.159 79.817,217.284 79.817,217.372 C79.817,217.455 79.817,217.539 79.817,217.586 C74.197,220.185 69.338,224.143 65.629,229.002 C65.504,228.961 65.374,228.919 65.249,228.919 L65.249,217.966 C67.421,217.414 69.041,215.409 69.041,213.065 C69.041,212.554 68.952,212.086 68.827,211.617 C75.812,206.929 83.952,204.205 92.473,203.695 C92.348,203.138 92.26,202.544 92.26,201.903 C92.26,201.393 92.301,200.883 92.432,200.372 C83.145,200.924 74.411,204.034 67.036,209.018 C66.187,208.383 65.119,207.997 63.968,207.997 C61.156,207.997 58.9,210.258 58.9,213.065 C58.9,213.877 59.067,214.601 59.411,215.284 C52.807,221.846 47.906,230.195 45.603,239.44 C43.004,239.653 40.963,241.825 40.963,244.513 C41.004,246.601 42.322,248.429 44.197,249.2 z M64.182,231.008 C65.76,231.008 67.036,232.284 67.036,233.862 C67.036,235.435 65.76,236.716 64.182,236.716 C62.603,236.716 61.327,235.435 61.327,233.862 C61.327,232.284 62.603,231.008 64.182,231.008 z M61.583,217.497 C61.713,217.539 61.796,217.627 61.926,217.669 L61.926,229.346 C60.265,230.195 59.114,231.898 59.114,233.862 C59.114,233.945 59.114,234.028 59.114,234.117 L49.228,240.508 C49.098,240.377 48.926,240.294 48.801,240.211 C50.89,231.643 55.275,223.763 61.583,217.497 z M46.072,241.57 C47.65,241.57 48.926,242.851 48.926,244.424 C48.926,246.002 47.65,247.284 46.072,247.284 C44.499,247.284 43.218,246.002 43.218,244.424 C43.218,242.851 44.452,241.57 46.072,241.57 z M46.072,241.57" fill="#425563"/>
      <path d="M57.869,264.966 C57.744,265.393 57.702,265.82 57.702,266.289 C57.702,268.674 59.317,270.674 61.536,271.231 L63.749,288.612 C62.557,289.549 61.833,291.002 61.833,292.575 C61.833,295.388 64.093,297.648 66.906,297.648 C68.098,297.648 69.161,297.221 70.015,296.58 C77.343,300.627 85.781,302.929 94.728,302.929 C100.353,302.929 105.76,302.034 110.791,300.372 C111.728,301.351 113.004,301.95 114.452,301.95 C117.265,301.95 119.525,299.69 119.525,296.883 C119.525,295.476 118.973,294.237 118.077,293.299 L123.447,279.794 C125.062,279.153 126.254,277.664 126.557,275.919 L136.864,270.888 C136.14,270.039 135.671,269.013 135.416,267.909 L125.916,272.549 C125.874,272.508 125.874,272.466 125.833,272.424 C128.984,267.695 131.114,262.195 131.838,256.273 C132.182,253.633 134.437,251.674 137.077,251.674 C140.275,251.674 142.702,254.44 142.322,257.596 C142.15,258.83 141.978,260.065 141.723,261.258 C139.254,261.601 137.379,263.731 137.379,266.289 C137.379,267.778 138.015,269.101 139.041,270.039 C136.656,275.789 133.161,281.028 128.645,285.591 C126.046,288.19 123.187,290.445 120.166,292.362 C120.843,293.216 121.359,294.237 121.572,295.346 C130.687,289.721 137.89,281.33 142.067,271.356 C142.192,271.356 142.322,271.356 142.447,271.356 C145.26,271.356 147.52,269.101 147.52,266.289 C147.52,264.414 146.494,262.752 144.963,261.856 C145.603,258.659 145.942,255.377 145.984,252.013 C146.114,233.179 161.067,217.669 179.9,217.586 C198.859,217.502 214.286,232.966 214.114,251.971 C213.942,270.674 198.52,285.846 179.859,285.716 C171.249,285.674 163.411,282.435 157.447,277.112 C153.4,273.487 147.004,274.513 144.364,279.284 C144.322,279.325 144.281,279.409 144.281,279.455 C142.322,282.945 143.088,287.336 146.072,290.018 C155.228,298.159 167.333,303.06 180.583,302.929 C208.833,302.674 231.416,279.794 231.369,251.544 C231.327,223.252 208.364,200.372 180.072,200.372 C151.864,200.372 128.984,223.127 128.77,251.289 C128.728,258.278 126.64,264.841 123.062,270.294 C122.593,270.122 122.041,270.039 121.525,270.039 C118.713,270.039 116.458,272.294 116.458,275.106 C116.458,277.325 117.864,279.195 119.822,279.877 L115.093,291.81 C114.879,291.768 114.708,291.768 114.499,291.768 C111.687,291.768 109.426,294.023 109.426,296.836 C109.426,297.008 109.426,297.179 109.468,297.304 C104.827,298.799 99.968,299.606 95.025,299.606 C87.187,299.648 79.473,297.773 72.614,294.195 L85.098,291.383 C84.499,290.445 84.119,289.383 83.989,288.231 L71.718,291.002 C71.077,288.997 69.202,287.549 66.989,287.508 L65.327,274.721 C70.484,281.284 77.812,286.06 86.161,288.06 C86.504,290.575 88.635,292.534 91.234,292.534 C92.083,292.534 92.853,292.32 93.536,291.981 L107.213,296.455 C107.296,295.304 107.635,294.195 108.15,293.258 L95.963,289.294 C96.004,289.211 96.004,289.127 96.046,289.039 C104.145,288.742 111.598,285.888 117.567,281.242 C116.583,280.601 115.775,279.752 115.223,278.773 C109.853,282.903 103.208,285.461 95.963,285.716 C95.239,283.758 93.406,282.393 91.192,282.393 C89.359,282.393 87.739,283.372 86.843,284.82 C78.15,282.778 70.739,277.409 66.051,270.122 C67.119,269.185 67.796,267.82 67.796,266.289 C67.796,263.476 65.541,261.216 62.728,261.216 C62.473,261.216 62.26,261.216 62.004,261.258 C61.067,258.106 60.598,254.784 60.64,251.33 C60.682,247.794 61.239,244.388 62.301,241.148 C61.192,240.976 60.129,240.508 59.234,239.872 C58.041,243.45 57.359,247.325 57.317,251.289 C57.275,254.185 57.614,257.039 58.213,259.768 L50.754,249.455 C49.989,250.31 49.051,250.95 48.031,251.372 z M118.671,275.106 C118.671,273.528 119.952,272.252 121.525,272.252 C123.103,272.252 124.379,273.528 124.379,275.106 C124.379,276.685 123.103,277.961 121.525,277.961 C119.952,277.961 118.671,276.685 118.671,275.106 z M114.499,293.981 C116.072,293.981 117.353,295.263 117.353,296.836 C117.353,298.414 116.072,299.69 114.499,299.69 C112.921,299.69 111.64,298.414 111.64,296.836 C111.64,295.263 112.879,293.981 114.499,293.981 z M62.77,263.435 C64.348,263.435 65.624,264.711 65.624,266.289 C65.624,267.862 64.348,269.143 62.77,269.143 C61.192,269.143 59.916,267.862 59.916,266.289 C59.874,264.711 61.15,263.435 62.77,263.435 z M62.77,263.435" fill="#41B6E6"/>
      <text transform="matrix(1, 0, 0, 1, 347.141, 249.31)">
        <tspan x="-111.896" y="-21.843" font-family="Frutiger-Bold" font-size="39" fill="#425563">Digital</tspan>
        <tspan x="-111.896" y="14.157" font-family="Frutiger-Bold" font-size="39" fill="#425563">Engineering</tspan>
        <tspan x="-111.896" y="50.157" font-family="Frutiger-Bold" font-size="39" fill="#425563">Service</tspan>
      </text>
    </g>
  </g>
  <g id="Square">
    <path d="M125.547,41.558 C128.122,42.838 130.37,44.655 132.069,46.903 L148.757,30.645 C150.469,31.508 152.286,31.926 154.312,31.926 C154.952,31.926 155.697,31.821 156.337,31.821 L170.883,52.026 C168.53,54.378 167.145,57.593 167.145,61.122 C167.145,68.179 172.804,73.838 179.861,73.838 C183.076,73.838 186.069,72.661 188.317,70.636 C199.647,77.471 209.161,86.88 216.323,98.002 C218.14,100.89 222.518,100.354 223.589,97.152 L223.589,97.048 C224.02,95.871 223.811,94.473 223.158,93.401 C215.356,81.221 204.77,70.949 192.368,63.474 C192.368,63.252 192.486,63.043 192.486,62.716 L214.506,60.481 C213.866,58.665 213.539,56.731 213.539,54.705 C213.539,53.842 213.644,52.888 213.761,52.026 L190.656,54.378 C188.421,50.745 184.357,48.288 179.757,48.288 C179.325,48.288 178.907,48.288 178.58,48.393 L163.721,27.757 C164.362,27.012 165.002,26.267 165.433,25.405 C185.311,28.933 204.025,37.493 219.852,50.431 C219.316,51.817 219.107,53.32 219.107,54.809 C219.107,61.867 224.765,67.538 231.823,67.538 C238.88,67.538 244.551,61.867 244.551,54.809 C244.551,47.752 238.88,42.094 231.823,42.094 C229.366,42.094 227.013,42.838 225.092,44.015 C208.625,30.645 188.735,21.236 166.923,17.289 C165.969,11.186 160.728,6.599 154.312,6.599 C147.255,6.599 141.596,12.258 141.596,19.315 C141.596,21.236 142.014,23.17 142.876,24.764 z M179.861,53.842 C183.821,53.842 187.023,57.057 187.023,61.017 C187.023,64.964 183.821,68.179 179.861,68.179 C175.914,68.179 172.699,64.964 172.699,61.017 C172.699,57.057 175.914,53.842 179.861,53.842 z M154.416,12.048 C158.376,12.048 161.578,15.25 161.578,19.21 C161.578,23.17 158.376,26.372 154.416,26.372 C150.469,26.372 147.255,23.17 147.255,19.21 C147.15,15.25 150.469,12.048 154.416,12.048 z M154.416,12.048" fill="#425563"/>
    <path d="M16.332,136.491 C16.227,138.203 16.227,140.019 16.227,141.731 C16.018,179.578 32.367,213.779 58.465,237.525 C59.642,234.951 61.34,232.703 63.484,231.004 C63.379,230.886 63.275,230.782 63.17,230.677 C37.294,206.618 23.389,173.266 24.67,137.876 C24.67,137.562 24.67,137.235 24.67,136.909 C29.91,135.314 33.765,130.505 33.765,124.729 C33.765,123.762 33.661,122.808 33.439,121.945 L57.067,106.655 C59.419,109.229 62.739,110.823 66.476,110.823 C73.534,110.823 79.205,105.165 79.205,98.108 C79.205,95.324 78.343,92.762 76.853,90.724 C85.191,79.72 96.195,70.846 108.819,64.965 C111.172,67.631 114.583,69.343 118.438,69.343 C124.959,69.343 130.409,64.429 131.049,58.013 C135.649,57.268 140.459,56.836 145.268,56.941 C151.149,56.941 156.821,57.581 162.271,58.758 C162.375,55.869 163.238,53.203 164.623,50.746 C157.788,49.243 150.731,48.499 143.452,48.603 C138.642,48.708 133.833,49.139 129.128,49.884 C126.88,46.251 122.934,43.898 118.333,43.898 C114.7,43.898 111.381,45.401 109.133,47.858 L84.119,44.225 C84.119,44.761 84.224,45.297 84.224,45.819 C84.224,48.172 83.793,50.42 82.943,52.563 L105.709,55.869 C105.709,56.091 105.709,56.405 105.709,56.627 C105.709,56.836 105.709,57.045 105.709,57.163 C91.608,63.684 79.415,73.617 70.11,85.81 C69.796,85.705 69.469,85.601 69.156,85.601 L69.156,58.117 C74.605,56.732 78.67,51.7 78.67,45.819 C78.67,44.539 78.447,43.362 78.134,42.186 C95.659,30.424 116.086,23.589 137.466,22.309 C137.152,20.91 136.93,19.421 136.93,17.813 C136.93,16.532 137.035,15.252 137.361,13.971 C114.06,15.356 92.144,23.158 73.638,35.665 C71.508,34.071 68.829,33.104 65.941,33.104 C58.884,33.104 53.225,38.775 53.225,45.819 C53.225,47.858 53.643,49.675 54.506,51.387 C37.934,67.853 25.637,88.803 19.86,112 C13.339,112.535 8.216,117.985 8.216,124.729 C8.32,129.969 11.627,134.556 16.332,136.491 z M66.476,90.841 C70.436,90.841 73.638,94.043 73.638,98.003 C73.638,101.95 70.436,105.165 66.476,105.165 C62.517,105.165 59.315,101.95 59.315,98.003 C59.315,94.043 62.517,90.841 66.476,90.841 z M59.955,56.941 C60.282,57.045 60.491,57.268 60.818,57.372 L60.818,86.672 C56.649,88.803 53.761,93.076 53.761,98.003 C53.761,98.212 53.761,98.421 53.761,98.643 L28.956,114.679 C28.629,114.352 28.198,114.143 27.884,113.934 C33.125,92.436 44.129,72.663 59.955,56.941 z M21.036,117.345 C24.996,117.345 28.198,120.56 28.198,124.506 C28.198,128.466 24.996,131.681 21.036,131.681 C17.09,131.681 13.875,128.466 13.875,124.506 C13.875,120.56 16.972,117.345 21.036,117.345 z M21.036,117.345" fill="#425563"/>
    <path d="M50.637,176.05 C50.323,177.121 50.219,178.193 50.219,179.369 C50.219,185.355 54.27,190.373 59.837,191.771 L65.392,235.382 C62.399,237.734 60.582,241.38 60.582,245.327 C60.582,252.384 66.254,258.056 73.311,258.056 C76.304,258.056 78.97,256.985 81.113,255.377 C99.501,265.532 120.673,271.308 143.125,271.308 C157.239,271.308 170.804,269.06 183.429,264.891 C185.781,267.348 188.983,268.851 192.616,268.851 C199.673,268.851 205.345,263.179 205.345,256.135 C205.345,252.607 203.96,249.496 201.712,247.144 L215.186,213.256 C219.237,211.649 222.23,207.911 222.988,203.533 L248.851,190.909 C247.034,188.779 245.858,186.204 245.218,183.434 L221.381,195.078 C221.276,194.973 221.276,194.869 221.171,194.764 C229.078,182.898 234.423,169.097 236.24,154.238 C237.102,147.612 242.761,142.698 249.387,142.698 C257.411,142.698 263.501,149.638 262.547,157.557 C262.116,160.655 261.685,163.752 261.044,166.745 C254.85,167.607 250.145,172.952 250.145,179.369 C250.145,183.107 251.739,186.426 254.314,188.779 C248.328,203.207 239.559,216.354 228.229,227.802 C221.707,234.323 214.532,239.982 206.953,244.791 C208.652,246.935 209.945,249.496 210.481,252.28 C233.352,238.166 251.426,217.112 261.907,192.085 C262.22,192.085 262.547,192.085 262.861,192.085 C269.918,192.085 275.59,186.426 275.59,179.369 C275.59,174.664 273.015,170.495 269.173,168.248 C270.78,160.223 271.63,151.99 271.734,143.548 C272.061,96.291 309.582,57.372 356.838,57.163 C404.409,56.954 443.118,95.755 442.687,143.443 C442.256,190.373 403.559,228.442 356.734,228.116 C335.131,228.011 315.463,219.882 300.499,206.526 C290.344,197.43 274.296,200.005 267.67,211.976 C267.566,212.08 267.461,212.289 267.461,212.407 C262.547,221.163 264.468,232.18 271.957,238.91 C294.932,259.337 325.303,271.635 358.55,271.308 C429.435,270.668 486.101,213.256 485.984,142.371 C485.879,71.382 428.259,13.971 357.27,13.971 C286.489,13.971 229.078,71.068 228.542,141.731 C228.438,159.269 223.197,175.736 214.219,189.419 C213.043,188.988 211.657,188.779 210.364,188.779 C203.306,188.779 197.648,194.437 197.648,201.495 C197.648,207.062 201.176,211.754 206.09,213.466 L194.224,243.406 C193.688,243.302 193.257,243.302 192.734,243.302 C185.677,243.302 180.005,248.96 180.005,256.017 C180.005,256.449 180.005,256.88 180.109,257.194 C168.465,260.944 156.272,262.97 143.87,262.97 C124.201,263.075 104.846,258.37 87.635,249.392 L118.961,242.334 C117.458,239.982 116.504,237.316 116.177,234.428 L85.387,241.38 C83.779,236.349 79.075,232.716 73.52,232.611 L69.352,200.527 C82.29,216.994 100.677,228.978 121.627,233.997 C122.489,240.309 127.834,245.223 134.356,245.223 C136.486,245.223 138.42,244.687 140.132,243.837 L174.451,255.063 C174.66,252.175 175.509,249.392 176.803,247.039 L146.222,237.094 C146.327,236.885 146.327,236.676 146.431,236.454 C166.753,235.709 185.454,228.547 200.431,216.89 C197.961,215.282 195.936,213.152 194.55,210.695 C181.076,221.059 164.401,227.475 146.222,228.116 C144.405,223.202 139.805,219.778 134.251,219.778 C129.651,219.778 125.586,222.235 123.339,225.868 C101.527,220.745 82.93,207.271 71.168,188.988 C73.847,186.635 75.546,183.211 75.546,179.369 C75.546,172.312 69.887,166.64 62.83,166.64 C62.19,166.64 61.654,166.64 61.014,166.745 C58.661,158.838 57.485,150.5 57.59,141.836 C57.694,132.962 59.093,124.415 61.759,116.286 C58.975,115.855 56.309,114.679 54.061,113.084 C51.068,122.063 49.356,131.786 49.252,141.731 C49.147,148.997 49.997,156.159 51.5,163.007 L32.785,137.131 C30.864,139.274 28.512,140.882 25.95,141.94 z M203.202,201.495 C203.202,197.535 206.417,194.333 210.364,194.333 C214.323,194.333 217.525,197.535 217.525,201.495 C217.525,205.454 214.323,208.656 210.364,208.656 C206.417,208.656 203.202,205.454 203.202,201.495 z M192.734,248.856 C196.681,248.856 199.895,252.071 199.895,256.017 C199.895,259.977 196.681,263.179 192.734,263.179 C188.774,263.179 185.559,259.977 185.559,256.017 C185.559,252.071 188.669,248.856 192.734,248.856 z M62.935,172.207 C66.895,172.207 70.096,175.409 70.096,179.369 C70.096,183.316 66.895,186.531 62.935,186.531 C58.975,186.531 55.773,183.316 55.773,179.369 C55.669,175.409 58.87,172.207 62.935,172.207 z M62.935,172.207" fill="#41B6E6"/>
    <path d="M14.158,338.462 L30.011,338.462 C47.773,338.462 63.46,332.486 63.46,309.495 C63.46,286.504 47.773,280.528 30.011,280.528 L14.158,280.528 z M25.778,289.658 L32.252,289.658 C41.963,289.658 51.342,296.879 51.342,309.495 C51.342,322.111 41.963,329.332 32.252,329.332 L25.778,329.332 z" fill="#425563"/>
    <path d="M73.337,338.462 L84.459,338.462 L84.459,295.717 L73.337,295.717 z M73.337,287.915 L84.459,287.915 L84.459,277.291 L73.337,277.291 z" fill="#425563"/>
    <path d="M114.505,329.83 C108.114,329.83 105.043,322.692 105.043,316.882 C105.043,310.325 107.45,303.353 115.003,303.353 C121.477,303.353 124.299,309.329 124.299,316.633 C124.299,323.771 121.477,329.83 114.505,329.83 z M124.797,295.717 L124.797,301.527 L124.631,301.527 C121.56,296.63 117.161,294.721 111.517,294.721 C98.735,294.721 93.423,306.59 93.423,316.882 C93.423,328.336 98.237,338.462 110.853,338.462 C117.078,338.462 122.058,335.308 124.133,331.656 L124.299,331.656 C124.299,339.043 123.718,348.256 111.434,348.256 C107.948,348.256 102.387,346.347 98.984,344.521 L98.071,353.983 C103.383,356.224 108.446,356.888 112.845,356.888 C130.773,356.888 135.421,345.932 135.421,334.312 L135.421,295.717 z" fill="#425563"/>
    <path d="M147.124,338.462 L158.246,338.462 L158.246,295.717 L147.124,295.717 z M147.124,287.915 L158.246,287.915 L158.246,277.291 L147.124,277.291 z" fill="#425563"/>
    <path d="M173.601,325.597 C173.601,334.063 178.415,339.458 187.13,339.458 C190.45,339.458 193.023,339.126 195.347,338.462 L195.015,329.664 C193.853,330.411 191.944,330.826 189.952,330.826 C185.719,330.826 184.723,327.423 184.723,323.771 L184.723,303.851 L194.6,303.851 L194.6,295.717 L184.723,295.717 L184.723,283.599 L173.601,287.168 L173.601,295.717 L165.384,295.717 L165.384,303.851 L173.601,303.851 z" fill="#425563"/>
    <path d="M204.477,307.503 C208.212,304.681 212.943,302.855 217.674,302.855 C224.231,302.855 227.302,305.179 227.302,312.068 L221.16,312.068 C216.512,312.068 211.034,312.483 206.801,314.558 C202.568,316.633 199.497,320.368 199.497,326.759 C199.497,334.893 206.884,339.458 214.437,339.458 C219.5,339.458 225.061,336.802 227.634,332.071 L227.8,332.071 C227.883,333.399 227.883,336.221 228.298,338.462 L238.092,338.462 C237.843,335.142 237.677,332.154 237.594,328.917 C237.511,325.763 237.428,322.526 237.428,318.21 L237.428,312.732 C237.428,300.116 232.033,294.721 219.002,294.721 C214.271,294.721 208.461,295.966 204.145,297.958 z M210.121,326.095 C210.121,319.538 217.508,318.708 222.488,318.708 L227.302,318.708 C227.302,322.028 226.804,325.099 224.978,327.506 C223.235,329.83 220.579,331.324 217.176,331.324 C213.192,331.324 210.121,329.747 210.121,326.095 z" fill="#425563"/>
    <path d="M248.633,338.462 L259.755,338.462 L259.755,276.212 L248.633,276.212 z" fill="#425563"/>
    <path d="M14.158,415.262 L48.52,415.262 L48.52,406.132 L25.778,406.132 L25.778,389.864 L46.445,389.864 L46.445,380.734 L25.778,380.734 L25.778,366.458 L48.354,366.458 L48.354,357.328 L14.158,357.328 z" fill="#425563"/>
    <path d="M59.31,415.262 L70.432,415.262 L70.432,394.346 C70.432,388.868 72.175,380.153 80.226,380.153 C87.364,380.153 87.447,387.208 87.447,392.437 L87.447,415.262 L98.569,415.262 L98.569,388.287 C98.569,378.659 94.17,371.521 84.044,371.521 C78.234,371.521 73.503,373.43 70.017,378.327 L69.851,378.327 L69.851,372.517 L59.31,372.517 z" fill="#425563"/>
    <path d="M128.366,406.63 C121.975,406.63 118.904,399.492 118.904,393.682 C118.904,387.125 121.311,380.153 128.864,380.153 C135.338,380.153 138.16,386.129 138.16,393.433 C138.16,400.571 135.338,406.63 128.366,406.63 z M138.658,372.517 L138.658,378.327 L138.492,378.327 C135.421,373.43 131.022,371.521 125.378,371.521 C112.596,371.521 107.284,383.39 107.284,393.682 C107.284,405.136 112.098,415.262 124.714,415.262 C130.939,415.262 135.919,412.108 137.994,408.456 L138.16,408.456 C138.16,415.843 137.579,425.056 125.295,425.056 C121.809,425.056 116.248,423.147 112.845,421.321 L111.932,430.783 C117.244,433.024 122.307,433.688 126.706,433.688 C144.634,433.688 149.282,422.732 149.282,411.112 L149.282,372.517 z" fill="#425563"/>
    <path d="M160.985,415.262 L172.107,415.262 L172.107,372.517 L160.985,372.517 z M160.985,364.715 L172.107,364.715 L172.107,354.091 L160.985,354.091 z" fill="#425563"/>
    <path d="M183.81,415.262 L194.932,415.262 L194.932,394.346 C194.932,388.868 196.675,380.153 204.726,380.153 C211.864,380.153 211.947,387.208 211.947,392.437 L211.947,415.262 L223.069,415.262 L223.069,388.287 C223.069,378.659 218.67,371.521 208.544,371.521 C202.734,371.521 198.003,373.43 194.517,378.327 L194.351,378.327 L194.351,372.517 L183.81,372.517 z" fill="#425563"/>
    <path d="M242.408,389.698 C242.906,383.971 246.06,379.655 252.285,379.655 C258.51,379.655 261,384.303 261.332,389.698 z M268.802,403.808 C264.652,406.132 260.004,408.124 254.609,408.124 C247.72,408.124 242.906,404.223 242.408,397.334 L271.956,397.334 C271.956,382.394 267.474,371.521 251.621,371.521 C238.341,371.521 231.784,381.73 231.784,394.097 C231.784,408.124 240.001,416.258 254.111,416.258 C260.087,416.258 264.735,415.096 268.802,412.855 z" fill="#425563"/>
    <path d="M288.556,389.698 C289.054,383.971 292.208,379.655 298.433,379.655 C304.658,379.655 307.148,384.303 307.48,389.698 z M314.95,403.808 C310.8,406.132 306.152,408.124 300.757,408.124 C293.868,408.124 289.054,404.223 288.556,397.334 L318.104,397.334 C318.104,382.394 313.622,371.521 297.769,371.521 C284.489,371.521 277.932,381.73 277.932,394.097 C277.932,408.124 286.149,416.258 300.259,416.258 C306.235,416.258 310.883,415.096 314.95,412.855 z" fill="#425563"/>
    <path d="M327.068,415.262 L338.19,415.262 L338.19,399.575 C338.19,393.433 338.19,382.145 347.237,382.145 C349.229,382.145 351.221,382.477 352.217,383.058 L352.217,371.853 C351.055,371.521 349.893,371.521 348.814,371.521 C342.174,371.521 337.609,378.244 337.111,382.228 L336.945,382.228 L336.945,372.517 L327.068,372.517 z" fill="#425563"/>
    <path d="M359.355,415.262 L370.477,415.262 L370.477,372.517 L359.355,372.517 z M359.355,364.715 L370.477,364.715 L370.477,354.091 L359.355,354.091 z" fill="#425563"/>
    <path d="M382.18,415.262 L393.302,415.262 L393.302,394.346 C393.302,388.868 395.045,380.153 403.096,380.153 C410.234,380.153 410.317,387.208 410.317,392.437 L410.317,415.262 L421.439,415.262 L421.439,388.287 C421.439,378.659 417.04,371.521 406.914,371.521 C401.104,371.521 396.373,373.43 392.887,378.327 L392.721,378.327 L392.721,372.517 L382.18,372.517 z" fill="#425563"/>
    <path d="M451.236,406.63 C444.845,406.63 441.774,399.492 441.774,393.682 C441.774,387.125 444.181,380.153 451.734,380.153 C458.208,380.153 461.03,386.129 461.03,393.433 C461.03,400.571 458.208,406.63 451.236,406.63 z M461.528,372.517 L461.528,378.327 L461.362,378.327 C458.291,373.43 453.892,371.521 448.248,371.521 C435.466,371.521 430.154,383.39 430.154,393.682 C430.154,405.136 434.968,415.262 447.584,415.262 C453.809,415.262 458.789,412.108 460.864,408.456 L461.03,408.456 C461.03,415.843 460.449,425.056 448.165,425.056 C444.679,425.056 439.118,423.147 435.715,421.321 L434.802,430.783 C440.114,433.024 445.177,433.688 449.576,433.688 C467.504,433.688 472.152,422.732 472.152,411.112 L472.152,372.517 z" fill="#425563"/>
    <path d="M46.362,435.207 C42.129,433.796 37.481,433.132 32.501,433.132 C22.292,433.132 12.249,437.863 12.249,450.811 C12.249,469.984 37.647,465.419 37.647,476.458 C37.647,481.687 31.754,483.928 27.355,483.928 C22.79,483.928 18.225,482.517 14.241,480.359 L13.162,490.817 C18.889,492.228 21.711,493.058 28.019,493.058 C39.722,493.058 49.765,488.244 49.765,475.545 C49.765,456.123 24.367,460.356 24.367,450.313 C24.367,444.005 29.513,442.262 33.497,442.262 C37.564,442.262 41.631,443.175 45.283,444.752 z" fill="#425563"/>
    <path d="M67.195,466.498 C67.693,460.771 70.847,456.455 77.072,456.455 C83.297,456.455 85.787,461.103 86.119,466.498 z M93.589,480.608 C89.439,482.932 84.791,484.924 79.396,484.924 C72.507,484.924 67.693,481.023 67.195,474.134 L96.743,474.134 C96.743,459.194 92.261,448.321 76.408,448.321 C63.128,448.321 56.571,458.53 56.571,470.897 C56.571,484.924 64.788,493.058 78.898,493.058 C84.874,493.058 89.522,491.896 93.589,489.655 z" fill="#425563"/>
    <path d="M105.707,492.062 L116.829,492.062 L116.829,476.375 C116.829,470.233 116.829,458.945 125.876,458.945 C127.868,458.945 129.86,459.277 130.856,459.858 L130.856,448.653 C129.694,448.321 128.532,448.321 127.453,448.321 C120.813,448.321 116.248,455.044 115.75,459.028 L115.584,459.028 L115.584,449.317 L105.707,449.317 z" fill="#425563"/>
    <path d="M148.867,492.062 L161.4,492.062 L177.17,449.317 L166.048,449.317 L155.756,480.442 L155.59,480.442 L144.966,449.317 L133.014,449.317 z" fill="#425563"/>
    <path d="M184.142,492.062 L195.264,492.062 L195.264,449.317 L184.142,449.317 z M184.142,441.515 L195.264,441.515 L195.264,430.891 L184.142,430.891 z" fill="#425563"/>
    <path d="M235.685,449.732 C232.614,448.819 229.377,448.321 224.895,448.321 C211.532,448.321 204.228,458.115 204.228,470.482 C204.228,483.513 211.283,493.058 225.31,493.058 C229.875,493.058 233.195,492.643 236.432,491.647 L235.934,482.434 C234.025,483.264 230.539,484.426 227.385,484.426 C219.583,484.426 215.848,478.367 215.848,470.482 C215.848,462.431 220.247,456.953 227.136,456.953 C230.539,456.953 232.697,457.617 234.689,458.53 z" fill="#425563"/>
    <path d="M251.704,466.498 C252.202,460.771 255.356,456.455 261.581,456.455 C267.806,456.455 270.296,461.103 270.628,466.498 z M278.098,480.608 C273.948,482.932 269.3,484.924 263.905,484.924 C257.016,484.924 252.202,481.023 251.704,474.134 L281.252,474.134 C281.252,459.194 276.77,448.321 260.917,448.321 C247.637,448.321 241.08,458.53 241.08,470.897 C241.08,484.924 249.297,493.058 263.407,493.058 C269.383,493.058 274.031,491.896 278.098,489.655 z" fill="#425563"/>
  </g>
</svg>
