<?xml version="1.0" encoding="UTF-8"?>
<!DOCTYPE svg PUBLIC "-//W3C//DTD SVG 1.1//EN" "http://www.w3.org/Graphics/SVG/1.1/DTD/svg11.dtd">
<svg version="1.1" xmlns="http://www.w3.org/2000/svg" xmlns:xlink="http://www.w3.org/1999/xlink" x="0" y="0" width="412.643" height="105.498" viewBox="0, 0, 412.643, 105.498">
  <g id="Wide_-_White" transform="translate(-40.963, -197.434)">
    <g>
      <path d="M87.723,211.366 C88.749,211.877 89.645,212.601 90.322,213.497 L96.973,207.017 C97.656,207.361 98.38,207.528 99.187,207.528 C99.442,207.528 99.739,207.486 99.994,207.486 L105.791,215.538 C104.853,216.476 104.301,217.757 104.301,219.163 C104.301,221.976 106.557,224.231 109.369,224.231 C110.65,224.231 111.843,223.762 112.739,222.955 C117.255,225.679 121.046,229.429 123.9,233.861 C124.624,235.012 126.369,234.799 126.796,233.523 L126.796,233.481 C126.968,233.012 126.885,232.455 126.624,232.028 C123.515,227.174 119.296,223.08 114.353,220.101 C114.353,220.012 114.4,219.929 114.4,219.799 L123.176,218.908 C122.921,218.184 122.791,217.413 122.791,216.606 C122.791,216.262 122.833,215.882 122.88,215.538 L113.671,216.476 C112.781,215.028 111.161,214.049 109.327,214.049 C109.156,214.049 108.989,214.049 108.859,214.09 L102.937,205.866 C103.192,205.57 103.447,205.273 103.619,204.929 C111.541,206.335 118.999,209.747 125.307,214.903 C125.093,215.455 125.01,216.054 125.01,216.648 C125.01,219.46 127.265,221.721 130.077,221.721 C132.89,221.721 135.15,219.46 135.15,216.648 C135.15,213.835 132.89,211.58 130.077,211.58 C129.098,211.58 128.161,211.877 127.395,212.346 C120.833,207.017 112.906,203.267 104.213,201.695 C103.833,199.262 101.744,197.434 99.187,197.434 C96.374,197.434 94.119,199.689 94.119,202.502 C94.119,203.267 94.286,204.038 94.63,204.674 z M109.369,216.262 C110.947,216.262 112.223,217.543 112.223,219.122 C112.223,220.695 110.947,221.976 109.369,221.976 C107.796,221.976 106.515,220.695 106.515,219.122 C106.515,217.543 107.796,216.262 109.369,216.262 z M99.228,199.606 C100.807,199.606 102.083,200.882 102.083,202.46 C102.083,204.038 100.807,205.314 99.228,205.314 C97.656,205.314 96.374,204.038 96.374,202.46 C96.333,200.882 97.656,199.606 99.228,199.606 z M99.228,199.606" fill="#FFFFFF"/>
      <path d="M44.197,249.2 C44.156,249.883 44.156,250.606 44.156,251.289 C44.072,266.372 50.588,280.002 60.989,289.466 C61.458,288.44 62.135,287.544 62.989,286.867 C62.947,286.82 62.906,286.778 62.864,286.737 C52.551,277.148 47.01,263.856 47.52,249.752 C47.52,249.627 47.52,249.497 47.52,249.367 C49.609,248.731 51.145,246.815 51.145,244.513 C51.145,244.127 51.103,243.747 51.015,243.403 L60.432,237.31 C61.369,238.336 62.692,238.971 64.182,238.971 C66.994,238.971 69.254,236.716 69.254,233.903 C69.254,232.794 68.911,231.773 68.317,230.961 C71.64,226.575 76.025,223.039 81.057,220.695 C81.994,221.758 83.353,222.44 84.89,222.44 C87.489,222.44 89.661,220.481 89.916,217.924 C91.749,217.627 93.666,217.455 95.583,217.497 C97.926,217.497 100.187,217.752 102.359,218.221 C102.4,217.07 102.744,216.008 103.296,215.028 C100.572,214.429 97.76,214.133 94.859,214.174 C92.942,214.216 91.025,214.388 89.15,214.685 C88.255,213.237 86.682,212.299 84.848,212.299 C83.4,212.299 82.077,212.898 81.182,213.877 L71.213,212.429 C71.213,212.643 71.254,212.856 71.254,213.065 C71.254,214.002 71.083,214.898 70.744,215.752 L79.817,217.07 C79.817,217.159 79.817,217.284 79.817,217.372 C79.817,217.455 79.817,217.539 79.817,217.586 C74.197,220.185 69.338,224.143 65.629,229.002 C65.504,228.961 65.374,228.919 65.249,228.919 L65.249,217.966 C67.421,217.414 69.041,215.409 69.041,213.065 C69.041,212.554 68.952,212.086 68.827,211.617 C75.812,206.929 83.952,204.205 92.473,203.695 C92.348,203.138 92.26,202.544 92.26,201.903 C92.26,201.393 92.301,200.883 92.432,200.372 C83.145,200.924 74.411,204.034 67.036,209.018 C66.187,208.383 65.119,207.997 63.968,207.997 C61.156,207.997 58.9,210.258 58.9,213.065 C58.9,213.877 59.067,214.601 59.411,215.284 C52.807,221.846 47.906,230.195 45.603,239.44 C43.004,239.653 40.963,241.825 40.963,244.513 C41.004,246.601 42.322,248.429 44.197,249.2 z M64.182,231.008 C65.76,231.008 67.036,232.284 67.036,233.862 C67.036,235.435 65.76,236.716 64.182,236.716 C62.603,236.716 61.327,235.435 61.327,233.862 C61.327,232.284 62.603,231.008 64.182,231.008 z M61.583,217.497 C61.713,217.539 61.796,217.627 61.926,217.669 L61.926,229.346 C60.265,230.195 59.114,231.898 59.114,233.862 C59.114,233.945 59.114,234.028 59.114,234.117 L49.228,240.508 C49.098,240.377 48.926,240.294 48.801,240.211 C50.89,231.643 55.275,223.763 61.583,217.497 z M46.072,241.57 C47.65,241.57 48.926,242.851 48.926,244.424 C48.926,246.002 47.65,247.284 46.072,247.284 C44.499,247.284 43.218,246.002 43.218,244.424 C43.218,242.851 44.452,241.57 46.072,241.57 z M46.072,241.57" fill="#FFFFFF"/>
      <path d="M57.869,264.966 C57.744,265.393 57.702,265.82 57.702,266.289 C57.702,268.674 59.317,270.674 61.536,271.231 L63.749,288.612 C62.557,289.549 61.833,291.002 61.833,292.575 C61.833,295.388 64.093,297.648 66.906,297.648 C68.098,297.648 69.161,297.221 70.015,296.58 C77.343,300.627 85.781,302.929 94.728,302.929 C100.353,302.929 105.76,302.034 110.791,300.372 C111.728,301.351 113.004,301.95 114.452,301.95 C117.265,301.95 119.525,299.69 119.525,296.883 C119.525,295.476 118.973,294.237 118.077,293.299 L123.447,279.794 C125.062,279.153 126.254,277.664 126.557,275.919 L136.864,270.888 C136.14,270.039 135.671,269.013 135.416,267.909 L125.916,272.549 C125.874,272.508 125.874,272.466 125.833,272.424 C128.984,267.695 131.114,262.195 131.838,256.273 C132.182,253.633 134.437,251.674 137.077,251.674 C140.275,251.674 142.702,254.44 142.322,257.596 C142.15,258.83 141.978,260.065 141.723,261.258 C139.254,261.601 137.379,263.731 137.379,266.289 C137.379,267.778 138.015,269.101 139.041,270.039 C136.656,275.789 133.161,281.028 128.645,285.591 C126.046,288.19 123.187,290.445 120.166,292.362 C120.843,293.216 121.359,294.237 121.572,295.346 C130.687,289.721 137.89,281.33 142.067,271.356 C142.192,271.356 142.322,271.356 142.447,271.356 C145.26,271.356 147.52,269.101 147.52,266.289 C147.52,264.414 146.494,262.752 144.963,261.856 C145.603,258.659 145.942,255.377 145.984,252.013 C146.114,233.179 161.067,217.669 179.9,217.586 C198.859,217.502 214.286,232.966 214.114,251.971 C213.942,270.674 198.52,285.846 179.859,285.716 C171.249,285.674 163.411,282.435 157.447,277.112 C153.4,273.487 147.004,274.513 144.364,279.284 C144.322,279.325 144.281,279.409 144.281,279.455 C142.322,282.945 143.088,287.336 146.072,290.018 C155.228,298.159 167.333,303.06 180.583,302.929 C208.833,302.674 231.416,279.794 231.369,251.544 C231.327,223.252 208.364,200.372 180.072,200.372 C151.864,200.372 128.984,223.127 128.77,251.289 C128.728,258.278 126.64,264.841 123.062,270.294 C122.593,270.122 122.041,270.039 121.525,270.039 C118.713,270.039 116.458,272.294 116.458,275.106 C116.458,277.325 117.864,279.195 119.822,279.877 L115.093,291.81 C114.879,291.768 114.708,291.768 114.499,291.768 C111.687,291.768 109.426,294.023 109.426,296.836 C109.426,297.008 109.426,297.179 109.468,297.304 C104.827,298.799 99.968,299.606 95.025,299.606 C87.187,299.648 79.473,297.773 72.614,294.195 L85.098,291.383 C84.499,290.445 84.119,289.383 83.989,288.231 L71.718,291.002 C71.077,288.997 69.202,287.549 66.989,287.508 L65.327,274.721 C70.484,281.284 77.812,286.06 86.161,288.06 C86.504,290.575 88.635,292.534 91.234,292.534 C92.083,292.534 92.853,292.32 93.536,291.981 L107.213,296.455 C107.296,295.304 107.635,294.195 108.15,293.258 L95.963,289.294 C96.004,289.211 96.004,289.127 96.046,289.039 C104.145,288.742 111.598,285.888 117.567,281.242 C116.583,280.601 115.775,279.752 115.223,278.773 C109.853,282.903 103.208,285.461 95.963,285.716 C95.239,283.758 93.406,282.393 91.192,282.393 C89.359,282.393 87.739,283.372 86.843,284.82 C78.15,282.778 70.739,277.409 66.051,270.122 C67.119,269.185 67.796,267.82 67.796,266.289 C67.796,263.476 65.541,261.216 62.728,261.216 C62.473,261.216 62.26,261.216 62.004,261.258 C61.067,258.106 60.598,254.784 60.64,251.33 C60.682,247.794 61.239,244.388 62.301,241.148 C61.192,240.976 60.129,240.508 59.234,239.872 C58.041,243.45 57.359,247.325 57.317,251.289 C57.275,254.185 57.614,257.039 58.213,259.768 L50.754,249.455 C49.989,250.31 49.051,250.95 48.031,251.372 z M118.671,275.106 C118.671,273.528 119.952,272.252 121.525,272.252 C123.103,272.252 124.379,273.528 124.379,275.106 C124.379,276.685 123.103,277.961 121.525,277.961 C119.952,277.961 118.671,276.685 118.671,275.106 z M114.499,293.981 C116.072,293.981 117.353,295.263 117.353,296.836 C117.353,298.414 116.072,299.69 114.499,299.69 C112.921,299.69 111.64,298.414 111.64,296.836 C111.64,295.263 112.879,293.981 114.499,293.981 z M62.77,263.435 C64.348,263.435 65.624,264.711 65.624,266.289 C65.624,267.862 64.348,269.143 62.77,269.143 C61.192,269.143 59.916,267.862 59.916,266.289 C59.874,264.711 61.15,263.435 62.77,263.435 z M62.77,263.435" fill="#FFFFFF"/>
      <path d="M238.404,227.467 L245.853,227.467 C254.199,227.467 261.57,224.659 261.57,213.856 C261.57,203.053 254.199,200.245 245.853,200.245 L238.404,200.245 z M243.864,204.535 L246.906,204.535 C251.469,204.535 255.876,207.928 255.876,213.856 C255.876,219.784 251.469,223.177 246.906,223.177 L243.864,223.177 z" fill="#FFFFFF"/>
      <path d="M266.211,227.467 L271.437,227.467 L271.437,207.382 L266.211,207.382 z M266.211,203.716 L271.437,203.716 L271.437,198.724 L266.211,198.724 z" fill="#FFFFFF"/>
      <path d="M285.555,223.411 C282.552,223.411 281.109,220.057 281.109,217.327 C281.109,214.246 282.24,210.97 285.789,210.97 C288.831,210.97 290.157,213.778 290.157,217.21 C290.157,220.564 288.831,223.411 285.555,223.411 z M290.391,207.382 L290.391,210.112 L290.313,210.112 C288.87,207.811 286.803,206.914 284.151,206.914 C278.145,206.914 275.649,212.491 275.649,217.327 C275.649,222.709 277.911,227.467 283.839,227.467 C286.764,227.467 289.104,225.985 290.079,224.269 L290.157,224.269 C290.157,227.74 289.884,232.069 284.112,232.069 C282.474,232.069 279.861,231.172 278.262,230.314 L277.833,234.76 C280.329,235.813 282.708,236.125 284.775,236.125 C293.199,236.125 295.383,230.977 295.383,225.517 L295.383,207.382 z" fill="#FFFFFF"/>
      <path d="M300.882,227.467 L306.108,227.467 L306.108,207.382 L300.882,207.382 z M300.882,203.716 L306.108,203.716 L306.108,198.724 L300.882,198.724 z" fill="#FFFFFF"/>
      <path d="M313.323,221.422 C313.323,225.4 315.585,227.935 319.68,227.935 C321.24,227.935 322.449,227.779 323.541,227.467 L323.385,223.333 C322.839,223.684 321.942,223.879 321.006,223.879 C319.017,223.879 318.549,222.28 318.549,220.564 L318.549,211.204 L323.19,211.204 L323.19,207.382 L318.549,207.382 L318.549,201.688 L313.323,203.365 L313.323,207.382 L309.462,207.382 L309.462,211.204 L313.323,211.204 z" fill="#FFFFFF"/>
      <path d="M327.831,212.92 C329.586,211.594 331.809,210.736 334.032,210.736 C337.113,210.736 338.556,211.828 338.556,215.065 L335.67,215.065 C333.486,215.065 330.912,215.26 328.923,216.235 C326.934,217.21 325.491,218.965 325.491,221.968 C325.491,225.79 328.962,227.935 332.511,227.935 C334.89,227.935 337.503,226.687 338.712,224.464 L338.79,224.464 C338.829,225.088 338.829,226.414 339.024,227.467 L343.626,227.467 C343.509,225.907 343.431,224.503 343.392,222.982 C343.353,221.5 343.314,219.979 343.314,217.951 L343.314,215.377 C343.314,209.449 340.779,206.914 334.656,206.914 C332.433,206.914 329.703,207.499 327.675,208.435 z M330.483,221.656 C330.483,218.575 333.954,218.185 336.294,218.185 L338.556,218.185 C338.556,219.745 338.322,221.188 337.464,222.319 C336.645,223.411 335.397,224.113 333.798,224.113 C331.926,224.113 330.483,223.372 330.483,221.656 z" fill="#FFFFFF"/>
      <path d="M348.579,227.467 L353.805,227.467 L353.805,198.217 L348.579,198.217 z" fill="#FFFFFF"/>
      <path d="M238.404,263.467 L254.55,263.467 L254.55,259.177 L243.864,259.177 L243.864,251.533 L253.575,251.533 L253.575,247.243 L243.864,247.243 L243.864,240.535 L254.472,240.535 L254.472,236.245 L238.404,236.245 z" fill="#FFFFFF"/>
      <path d="M259.62,263.467 L264.846,263.467 L264.846,253.639 C264.846,251.065 265.665,246.97 269.448,246.97 C272.802,246.97 272.841,250.285 272.841,252.742 L272.841,263.467 L278.067,263.467 L278.067,250.792 C278.067,246.268 276,242.914 271.242,242.914 C268.512,242.914 266.289,243.811 264.651,246.112 L264.573,246.112 L264.573,243.382 L259.62,243.382 z" fill="#FFFFFF"/>
      <path d="M292.068,259.411 C289.065,259.411 287.622,256.057 287.622,253.327 C287.622,250.246 288.753,246.97 292.302,246.97 C295.344,246.97 296.67,249.778 296.67,253.21 C296.67,256.564 295.344,259.411 292.068,259.411 z M296.904,243.382 L296.904,246.112 L296.826,246.112 C295.383,243.811 293.316,242.914 290.664,242.914 C284.658,242.914 282.162,248.491 282.162,253.327 C282.162,258.709 284.424,263.467 290.352,263.467 C293.277,263.467 295.617,261.985 296.592,260.269 L296.67,260.269 C296.67,263.74 296.397,268.069 290.625,268.069 C288.987,268.069 286.374,267.172 284.775,266.314 L284.346,270.76 C286.842,271.813 289.221,272.125 291.288,272.125 C299.712,272.125 301.896,266.977 301.896,261.517 L301.896,243.382 z" fill="#FFFFFF"/>
      <path d="M307.395,263.467 L312.621,263.467 L312.621,243.382 L307.395,243.382 z M307.395,239.716 L312.621,239.716 L312.621,234.724 L307.395,234.724 z" fill="#FFFFFF"/>
      <path d="M318.12,263.467 L323.346,263.467 L323.346,253.639 C323.346,251.065 324.165,246.97 327.948,246.97 C331.302,246.97 331.341,250.285 331.341,252.742 L331.341,263.467 L336.567,263.467 L336.567,250.792 C336.567,246.268 334.5,242.914 329.742,242.914 C327.012,242.914 324.789,243.811 323.151,246.112 L323.073,246.112 L323.073,243.382 L318.12,243.382 z" fill="#FFFFFF"/>
      <path d="M345.654,251.455 C345.888,248.764 347.37,246.736 350.295,246.736 C353.22,246.736 354.39,248.92 354.546,251.455 z M358.056,258.085 C356.106,259.177 353.922,260.113 351.387,260.113 C348.15,260.113 345.888,258.28 345.654,255.043 L359.538,255.043 C359.538,248.023 357.432,242.914 349.983,242.914 C343.743,242.914 340.662,247.711 340.662,253.522 C340.662,260.113 344.523,263.935 351.153,263.935 C353.961,263.935 356.145,263.389 358.056,262.336 z" fill="#FFFFFF"/>
      <path d="M367.338,251.455 C367.572,248.764 369.054,246.736 371.979,246.736 C374.904,246.736 376.074,248.92 376.23,251.455 z M379.74,258.085 C377.79,259.177 375.606,260.113 373.071,260.113 C369.834,260.113 367.572,258.28 367.338,255.043 L381.222,255.043 C381.222,248.023 379.116,242.914 371.667,242.914 C365.427,242.914 362.346,247.711 362.346,253.522 C362.346,260.113 366.207,263.935 372.837,263.935 C375.645,263.935 377.829,263.389 379.74,262.336 z" fill="#FFFFFF"/>
      <path d="M385.434,263.467 L390.66,263.467 L390.66,256.096 C390.66,253.21 390.66,247.906 394.911,247.906 C395.847,247.906 396.783,248.062 397.251,248.335 L397.251,243.07 C396.705,242.914 396.159,242.914 395.652,242.914 C392.532,242.914 390.387,246.073 390.153,247.945 L390.075,247.945 L390.075,243.382 L385.434,243.382 z" fill="#FFFFFF"/>
      <path d="M400.605,263.467 L405.831,263.467 L405.831,243.382 L400.605,243.382 z M400.605,239.716 L405.831,239.716 L405.831,234.724 L400.605,234.724 z" fill="#FFFFFF"/>
      <path d="M411.33,263.467 L416.556,263.467 L416.556,253.639 C416.556,251.065 417.375,246.97 421.158,246.97 C424.512,246.97 424.551,250.285 424.551,252.742 L424.551,263.467 L429.777,263.467 L429.777,250.792 C429.777,246.268 427.71,242.914 422.952,242.914 C420.222,242.914 417.999,243.811 416.361,246.112 L416.283,246.112 L416.283,243.382 L411.33,243.382 z" fill="#FFFFFF"/>
      <path d="M443.778,259.411 C440.775,259.411 439.332,256.057 439.332,253.327 C439.332,250.246 440.463,246.97 444.012,246.97 C447.054,246.97 448.38,249.778 448.38,253.21 C448.38,256.564 447.054,259.411 443.778,259.411 z M448.614,243.382 L448.614,246.112 L448.536,246.112 C447.093,243.811 445.026,242.914 442.374,242.914 C436.368,242.914 433.872,248.491 433.872,253.327 C433.872,258.709 436.134,263.467 442.062,263.467 C444.987,263.467 447.327,261.985 448.302,260.269 L448.38,260.269 C448.38,263.74 448.107,268.069 442.335,268.069 C440.697,268.069 438.084,267.172 436.485,266.314 L436.056,270.76 C438.552,271.813 440.931,272.125 442.998,272.125 C451.422,272.125 453.606,266.977 453.606,261.517 L453.606,243.382 z" fill="#FFFFFF"/>
      <path d="M253.536,272.752 C251.547,272.089 249.363,271.777 247.023,271.777 C242.226,271.777 237.507,274 237.507,280.084 C237.507,289.093 249.441,286.948 249.441,292.135 C249.441,294.592 246.672,295.645 244.605,295.645 C242.46,295.645 240.315,294.982 238.443,293.968 L237.936,298.882 C240.627,299.545 241.953,299.935 244.917,299.935 C250.416,299.935 255.135,297.673 255.135,291.706 C255.135,282.58 243.201,284.569 243.201,279.85 C243.201,276.886 245.619,276.067 247.491,276.067 C249.402,276.067 251.313,276.496 253.029,277.237 z" fill="#FFFFFF"/>
      <path d="M263.325,287.455 C263.559,284.764 265.041,282.736 267.966,282.736 C270.891,282.736 272.061,284.92 272.217,287.455 z M275.727,294.085 C273.777,295.177 271.593,296.113 269.058,296.113 C265.821,296.113 263.559,294.28 263.325,291.043 L277.209,291.043 C277.209,284.023 275.103,278.914 267.654,278.914 C261.414,278.914 258.333,283.711 258.333,289.522 C258.333,296.113 262.194,299.935 268.824,299.935 C271.632,299.935 273.816,299.389 275.727,298.336 z" fill="#FFFFFF"/>
      <path d="M281.421,299.467 L286.647,299.467 L286.647,292.096 C286.647,289.21 286.647,283.906 290.898,283.906 C291.834,283.906 292.77,284.062 293.238,284.335 L293.238,279.07 C292.692,278.914 292.146,278.914 291.639,278.914 C288.519,278.914 286.374,282.073 286.14,283.945 L286.062,283.945 L286.062,279.382 L281.421,279.382 z" fill="#FFFFFF"/>
      <path d="M301.701,299.467 L307.59,299.467 L315,279.382 L309.774,279.382 L304.938,294.007 L304.86,294.007 L299.868,279.382 L294.252,279.382 z" fill="#FFFFFF"/>
      <path d="M318.276,299.467 L323.502,299.467 L323.502,279.382 L318.276,279.382 z M318.276,275.716 L323.502,275.716 L323.502,270.724 L318.276,270.724 z" fill="#FFFFFF"/>
      <path d="M342.495,279.577 C341.052,279.148 339.531,278.914 337.425,278.914 C331.146,278.914 327.714,283.516 327.714,289.327 C327.714,295.45 331.029,299.935 337.62,299.935 C339.765,299.935 341.325,299.74 342.846,299.272 L342.612,294.943 C341.715,295.333 340.077,295.879 338.595,295.879 C334.929,295.879 333.174,293.032 333.174,289.327 C333.174,285.544 335.241,282.97 338.478,282.97 C340.077,282.97 341.091,283.282 342.027,283.711 z" fill="#FFFFFF"/>
      <path d="M350.022,287.455 C350.256,284.764 351.738,282.736 354.663,282.736 C357.588,282.736 358.758,284.92 358.914,287.455 z M362.424,294.085 C360.474,295.177 358.29,296.113 355.755,296.113 C352.518,296.113 350.256,294.28 350.022,291.043 L363.906,291.043 C363.906,284.023 361.8,278.914 354.351,278.914 C348.111,278.914 345.03,283.711 345.03,289.522 C345.03,296.113 348.891,299.935 355.521,299.935 C358.329,299.935 360.513,299.389 362.424,298.336 z" fill="#FFFFFF"/>
    </g>
  </g>
</svg>
